<?xml version="1.0" standalone="no"?>
<!DOCTYPE svg PUBLIC "-//W3C//DTD SVG 1.1//EN" "http://www.w3.org/Graphics/SVG/1.1/DTD/svg11.dtd" >
<!--
2013-9-30: Created.
-->
<svg>
<metadata>
Created by iconfont
</metadata>
<defs>

<font id="iconfont" horiz-adv-x="1024" >
  <font-face
    font-family="iconfont"
    font-weight="500"
    font-stretch="normal"
    units-per-em="1024"
    ascent="896"
    descent="-128"
  />
    <missing-glyph />
    
    <glyph glyph-name="iconfuzhi" unicode="&#58923;" d="M921.338739 811.642866l-818.678502 0c-56.515424 0-102.334813-45.819558-102.334813-102.33062l0-818.645982c0-56.511062 45.819389-102.33062 102.334813-102.33062l818.678502 0c56.515424 0 102.334813 45.819558 102.334813 102.33062L1023.673552 709.312246C1023.673552 765.822284 977.85314 811.642866 921.338739 811.642866zM921.338739-58.167403c0-28.28009-22.934255-51.166333-51.16843-51.166333l-716.343689 0c-28.232128 0-51.167406 22.886243-51.167406 51.166333l0 716.314339c0 28.256554 22.935278 51.16531 51.167406 51.16531l716.343689 0c28.234175 0 51.16843-22.908756 51.16843-51.16531L921.338739-58.167403zM204.994027 606.981626l204.669625 0 0-51.16531-204.669625 0L204.994027 606.981626zM204.994027 402.320387l255.837032 0 0-51.16531-255.837032 0L204.994027 402.320387zM563.165871 402.320387l255.838055 0 0-51.16531L563.165871 351.155077 563.165871 402.320387zM563.165871 606.981626l255.838055 0 0-51.16531L563.165871 555.816317 563.165871 606.981626zM307.32884 555.81734l102.334813 0 0-204.66124-102.334813 0L307.32884 555.81734zM716.669114 555.81734l102.334813 0 0-204.66124-102.334813 0L716.669114 555.81734zM563.165871 555.81734l51.16843 0 0-204.66124-51.16843 0L563.165871 555.81734zM204.994027 248.82548l255.837032 0 0-51.16531-255.837032 0L204.994027 248.82548zM358.496246 197.66017l102.334813 0 0-102.33062-102.334813 0L358.496246 197.66017zM204.994027 146.49486l255.837032 0 0-51.16531-255.837032 0L204.994027 146.49486zM563.165871 248.82548l51.16843 0 0-102.33062-51.16843 0L563.165871 248.82548zM563.165871 146.49486l255.838055 0 0-51.16531L563.165871 95.329551 563.165871 146.49486zM204.994027 95.329551l102.334813 0 0-102.332666-102.334813 0L204.994027 95.329551zM716.669114 248.82548l102.334813 0 0-255.828596-102.334813 0L716.669114 248.82548zM204.994027 44.164241l255.837032 0 0-51.167357-255.837032 0L204.994027 44.164241z"  horiz-adv-x="1024" />

    
    <glyph glyph-name="caidan" unicode="&#58914;" d="M915.996682 511.757868c-6.060019-2.477424-0.321318-10.550287-4.996804-16.582677-39.711444-12.972453-84.036975-8.320503-128.001279-9.890254-56.388265-2.078335-114.408703-6.087649-171.229826-5.010107-71.409376 1.399883-148.249439 7.922437-211.131605-6.618744-28.507264-6.579859-57.565067-15.59928-79.784114 3.308349 0.798179 16.187681 2.430352 45.684482 4.976338 72.837912 1.594311 17.170055 1.671059 41.825594 8.318456 48.010457 3.722788 3.459798 5.962805 0 18.270109 4.934382 9.343809 3.820002 12.269441 11.836583 18.270109 13.275351 6.989181 1.62501 8.317433-3.460822 16.654308-3.328815 6.912433 0.112564 14.262842 4.273327 21.594831 4.953825 38.058804 3.611248 83.449597 1.588171 128.004349 6.637164 16.408715 1.87265 32.837896 7.922437 49.871851 9.946536 81.493036 9.738805 161.315012 18.303878 234.43331 16.526395 13.368472-0.301875 34.94386 2.136663 49.871851 0 3.210112-0.434905 5.791913-4.953825 8.29799-4.953825 19.847024-0.13303 42.940998 9.265014 59.881832 0 23.225981-12.763698 16.636912-39.822984 16.59905-69.529563-0.037862-21.858844 10.369162-59.222823-4.976338-69.509097C938.614819 498.541869 929.461345 507.541847 915.996682 511.757868zM726.479351 579.604092c-11.432377-17.320481-28.526707-34.887578-29.933753-52.945863 6.345522-5.161556 11.092639 2.420119 16.636912 3.309372 6.269797 27.267017 35.515888 44.834114 46.568618 72.780607C740.265332 608.307831 735.062843 592.613384 726.479351 579.604092zM779.654434 601.121152c-15.421224-25.487487-37.490869-44.340881-49.873897-72.836889 28.015054-9.699919 34.356482 27.947516 48.221258 43.055608 9.363252 8.906857 19.638269 16.867156 23.284309 31.407314C794.848485 607.11568 786.072611 602.06771 779.654434 601.121152zM854.481653 604.45099c-15.231913-25.149796-32.913621-47.821145-49.871851-71.175039 3.038196-8.697079 16.863063-3.914146 23.26589-1.682315 8.526187 27.90863 28.466332 44.491307 38.246069 71.15355C860.369757 601.462936 859.742471 605.226656 854.481653 604.45099zM886.084419 602.748209c-12.611226-23.843034-28.033473-44.926212-38.248116-71.15355 13.141298-1.474584 10.977006 12.270465 19.940145 14.900362 7.328919 22.520923 24.953322 34.735106 33.271778 56.254212C895.673821 605.471227 892.010385 603.543318 886.084419 602.748209zM779.654434 548.119007c-0.341784-8.451486-4.483104-13.159718-8.280594-18.151405 17.73799-8.565073 16.750499 15.090697 26.608008 19.835767 5.944386 11.192923 12.43931 21.783119 23.263843 28.15627 1.461281 10.644431 10.027377 14.257725 11.621688 24.789593C805.521568 594.14425 801.665751 562.132162 779.654434 548.119007zM699.890786 596.129464c-10.882861-27.227108-35.022655-41.22082-44.897559-69.472258 21.537526-8.224312 22.600741 11.612479 31.582299 24.789593 9.702989 14.239306 31.357172 32.809243 31.584346 49.674353C709.934536 601.5755 705.814706 597.964252 699.890786 596.129464zM653.36003 592.858978c-14.016225-22.463618-32.362059-40.636512-43.264363-66.200748 6.26775-4.406356 11.054777-2.041496 19.980054-1.700735 15.459087 23.76731 35.645848 42.865273 46.52871 71.172993C666.748968 597.170167 660.00845 594.996664 653.36003 592.858978zM598.455559 568.013103c-3.589758-17.358343-16.960277-25.037233-21.595854-41.354873 16.104793-4.216022 15.271822 10.135848 23.246447 21.461801 3.741207 5.29561 10.105149 7.337105 13.332656 11.629875 1.044796 1.399883-0.815575 5.01113 0 6.636141 4.063549 8.074909 17.813714 13.956873 14.965853 23.164582C608.273159 592.459888 612.603791 571.037996 598.455559 568.013103zM538.612613 526.65823c3.723811-3.269463 12.495592-1.436722 16.656355 0 10.956539 21.557992 27.40107 37.799908 38.229696 59.564607C560.301588 581.19124 552.590975 550.805186 538.612613 526.65823zM538.612613 581.287431c-13.370519-17.076934-27.691689-33.168424-36.579103-54.630225 5.0142 0 9.991562 0 14.986319 0 8.905834 20.914332 25.14468 34.528398 34.886555 54.630225C547.480584 581.287431 543.037389 581.287431 538.612613 581.287431zM881.087615 536.548484c2.146896-2.288113 7.198959-1.644453 11.642155-1.644453 2.944052 18.019399 19.107173 22.917966 18.270109 44.701085C896.036072 570.243911 889.636315 552.336052 881.087615 536.548484zM492.063437 574.649244c-5.375427-21.177322-25.848715-27.267017-29.912263-49.692772 32.79901 1.059122 33.615609 33.866319 49.872874 51.317783C502.506277 577.277094 499.773026 577.617855 492.063437 574.649244zM398.984528 518.376613c16.390295 12.972453 30.785144 36.532031 36.57808 54.591339C414.880567 570.830265 405.688207 534.374982 398.984528 518.376613zM430.549431 523.331461c12.211113-2.817162 13.882172 8.866948 16.636912 14.901385 5.317099 11.533684 23.284309 21.517059 23.284309 36.417421C446.653201 567.975241 440.956456 543.317655 430.549431 523.331461zM372.358101 515.010959c14.585183 15.296381 22.144346 37.573757 33.255405 56.329936C385.197524 569.354658 369.092731 540.650919 372.358101 515.010959zM116.350426 462.065096c-14.338566 31.917944-49.130977 27.076682-51.52449 67.901483-3.51301 59.431577 60.715827 108.518552 123.009591 96.000448 45.61899-9.208732 94.616938-78.245062 71.485101-129.10952-4.482081-9.852392-16.902972-27.815509-28.259624-34.792411C203.864596 445.444557 146.167522 446.427954 116.350426 462.065096zM154.600589 566.386046c-12.230556-18.814508-30.747281-40.425711-29.931706-59.619866 4.710278 1.381463 4.291746-2.344395 8.317433-1.644453 0.418532 34.941813 36.635385 46.969755 46.530756 77.790714C165.405679 588.754496 159.95555 574.591939 154.600589 566.386046zM106.380354 526.65823c12.516058 8.453533 20.682042 30.123065 23.264866 42.999326C119.12461 558.065544 106.816283 548.216221 106.380354 526.65823zM172.869674 539.856833c-2.52552-2.874467-8.128121-4.253884-9.989515-6.580882-3.304256-4.311189-3.722788-11.420097-6.608511-14.900362-4.823865-5.823636-18.688641-11.175527-18.307971-16.564257 0.322341-4.462638 13.55983-11.346419 18.307971-9.946536 12.154831 27.057239 33.140795 45.381583 43.206034 74.519204C188.290899 568.466428 182.423261 550.748904 172.869674 539.856833zM176.211792 493.549158c19.827581-5.937223 12.55392 10.833743 24.918529 24.827455 5.678326 6.390547 17.662265 13.70821 13.293771 26.471908C195.393667 534.014778 188.329784 511.265658 176.211792 493.549158zM131.31628 198.909627c-23.436782 18.398022-56.766888 40.276309-59.862389 79.417771-5.317099 67.694775 85.234243 96.359628 138.012284 57.954947 13.997805-10.191106 40.585347-41.921785 43.206034-62.890352 0.836041-6.449899-0.512676-18.47477-1.671059-23.163559C240.479515 205.98272 186.46839 181.779482 131.31628 198.909627zM124.668882 260.117664c5.811356 16.280802 16.35141 27.870768 21.612227 44.737924C121.135406 305.89629 107.386264 277.742067 124.668882 260.117664zM164.552242 301.546216c-2.602268-20.343327-45.37135-49.387827-13.294794-62.945611 3.437286 27.511587 24.270776 37.647435 26.587542 66.256006C171.350065 305.801123 168.198282 303.418866 164.552242 301.546216zM172.869674 236.955128c15.174608 6.636141 32.513508 36.171828 18.307971 51.318806C186.885899 270.403938 169.908226 256.601584 172.869674 236.955128zM129.644197-26.202387c-5.089925 8.717546-10.863419 16.71673-21.612227 19.836791-10.426467 18.662035-22.638603 22.766516-21.61325 48.009434 0.949628 23.069415 21.802562 54.232159 41.59228 64.573691 34.716686 18.114566 84.74101 4.462638 108.043738-33.108049 24.728194-39.880289 14.167674-103.319134-39.901779-110.881366C168.843988-41.631798 153.004231-32.593957 129.644197-26.202387zM149.623227 6.908732c2.127454-2.288113 7.217379-1.645476 11.622712-1.684362-1.937119 28.401864 23.588231 33.942043 18.270109 62.892399-1.672082 0-3.305279 0-4.976338 0C162.044118 51.893272 156.954193 28.276389 149.623227 6.908732zM136.292618 36.690012c0.949628 8.773827 17.281595 16.923438 8.335852 24.845874C141.818471 54.351254 131.771651 45.652128 136.292618 36.690012zM179.517071 6.908732c13.920034-6.390547 25.752524 23.597441 13.331633 33.108049C187.797665 29.559615 184.22735 17.64833 179.517071 6.908732zM932.613128-37.77291c-62.312184-7.374968-126.504182-8.623401-201.159486-5.01113-43.756573 2.13564-90.02127-4.556783-136.303362-6.618744-80.431867-3.51608-158.409846-1.039679-254.356059-1.644453-16.275685-0.094144-28.828582-2.571568-36.57808 3.328815-11.509125 8.754385-9.077749 33.298384-9.951653 54.628178-1.13894 26.13217-9.79918 71.342862 9.951653 76.107375 8.546653 2.080382 17.281595-6.636141 26.587542-8.262174 19.790742-3.459798 48.790216 2.478448 74.809823 4.991688 25.922393 2.477424 51.447742 2.780323 74.826196 4.954849 18.459421 1.721201 36.009122 7.129374 53.195549 8.263198 99.288331 6.731308 208.834282-3.971451 302.577317 1.626034 29.757744 1.834788 84.682681 16.774035 98.073666-18.152429C935.538761 34.364037 932.537404 0.518185 932.613128-37.77291zM689.899224 1.897601c30.766724-11.175527 35.969213 29.951149 48.219211 48.009434C709.156824 59.305079 701.220061 20.957703 689.899224 1.897601zM836.212568 1.897601c3.475148-3.25309 11.014868-1.228991 14.965853 0 3.342118 20.989033 16.064884 32.559557 23.246447 49.692772C846.143755 56.88496 847.150688 19.331669 836.212568 1.897601zM676.60443 51.590374c-7.936763-17.661242-26.929326-32.467459-26.608008-53.002145 6.819313-0.151449 13.636578-0.302899 18.289552 1.683339 7.863085 17.566074 21.157879 29.742395 28.258601 48.009434C692.482049 51.986393 684.695712 51.893272 676.60443 51.590374zM731.453642 0.271568c2.430352-2.571568 8.526187-1.436722 13.294794-1.683339 5.222955 20.781302 21.611204 30.386054 24.953322 53.002145C745.394143 45.992889 742.487953 19.084029 731.453642 0.271568zM766.35964-1.411771c7.483438-0.793062 12.497639 0.889253 18.307971 1.683339 3.151783 20.043499 15.993253 30.444383 19.942191 49.63649C779.769045 51.400039 775.855922 17.931786 766.35964-1.411771zM804.609803 0.271568c22.219047-0.88823 23.473621 32.713053 33.273824 49.63649C812.86993 54.806625 810.799782 14.187509 804.609803 0.271568zM553.576419 49.907035c-11.604292-18.209734-24.972764-34.698267-33.235962-56.272631 5.624091-5.482875 12.421914-4.78498 19.942191-1.627057 4.936429 23.201421 24.02416 32.373315 29.91124 54.591339C566.415842 49.452687 560.926828 50.606976 553.576419 49.907035zM561.894875-7.992653c7.824199-0.946558 12.611226-2.362814 19.962657 0 6.969739 22.313192 24.365944 34.187637 31.582299 56.272631C578.758961 53.272689 572.151473 16.760101 561.894875-7.992653zM606.792435-4.683281c8.052396-0.282433 13.292748 2.194992 19.940145 3.27151 6.875594 18.548448 20.814048 30.082132 26.627451 49.692772C621.985462 52.630053 616.573195 17.837642 606.792435-4.683281zM475.445968-7.992653c4.765537-6.27696 13.219069 0.302899 23.283286-1.684362 7.330966 21.917172 22.942525 35.68371 31.584346 56.274678C492.500389 54.407536 487.259014 15.606835 475.445968-7.992653zM432.219467-6.365596c3.875261-5.427616 15.117302-2.968611 21.614274-1.627057 5.963829 19.458167 21.118993 29.742395 24.935925 51.318806C445.1735 44.763898 444.679243 13.242997 432.219467-6.365596zM382.34864-7.992653c11.053754-3.024893 20.738323-1.834788 29.930683 1.627057 4.690836 17.96414 20.092617 25.241894 23.283286 44.700061C398.225235 48.962523 393.895627 12.599338 382.34864-7.992653zM871.118566 1.897601c14.697747-4.841262 15.783475 25.886577 14.965853 36.435841-0.381693 1.325182-1.404999 1.929955-3.344165 1.683339C878.677729 28.426815 869.447507 13.772047 871.118566 1.897601zM349.112678-9.675992c3.892657-0.490164 6.227842-2.625804 11.623735-1.623987 5.621021 17.016559 17.20587 28.096918 23.283286 44.680619C356.518345 41.096369 356.899014 7.588207 349.112678-9.675992zM940.951027 223.756525c-28.582989-13.46364-59.729359-13.954827-96.421027-16.5837-86.983073-6.182816-185.05674-4.00829-277.641391-9.945513-30.823006-1.929955-60.410881-5.14416-91.443665-4.954849-29.741371 0.150426-60.316737 4.00829-89.754187 3.328815-20.852934-0.511653-41.820478-7.03523-63.204507-1.644453-7.786337 10.549264-16.066931 27.077705-18.270109 46.326095-3.551896 31.218002-3.836375 69.225641 0 91.044576 34.299177 5.201465 70.269413 12.272511 106.410542 14.901385 64.818261 4.688789 129.922025 3.555989 202.812125 6.618744 31.734772 1.286296 64.458057 4.709255 96.421027 6.580882 73.250304 4.422729 145.627728 7.374968 222.753293 3.326768 2.240017-11.287067 16.48444-12.365632 19.980054-24.789593 3.569292-12.876262-1.482771-39.007409-3.344165-57.953923C947.199335 259.134267 945.129186 238.750007 940.951027 223.756525zM811.2572 318.073634c-9.819646-24.410969-29.476335-39.046295-36.559661-66.218144 4.956895-5.843078 20.623713-3.063779 28.258601-1.626034 7.653307 26.567076 26.570145 41.958624 33.255405 69.526493C827.663868 322.668279 818.434669 320.985964 811.2572 318.073634zM896.036072 321.38403c-13.447267-18.058284-28.7723-43.00035-31.564903-66.218144 5.525853-2.856048 7.368828 0.849344 14.945387 0 6.211469 22.518876 26.37981 31.122835 24.955368 61.263295C900.441405 316.920368 901.276423 322.176069 896.036072 321.38403zM774.698562 318.073634c-14.4542-20.894889-29.835516-40.936341-39.900755-66.218144 4.481058-6.770194 12.19167-3.952009 19.940145-1.626034 5.963829 28.249391 26.740014 41.768289 36.577057 66.198701C784.535605 319.056008 783.110139 319.510356 774.698562 318.073634zM857.823771 319.755949c-12.040221-21.686928-26.094308-41.37227-33.255405-67.900459 5.680373-4.406356 13.20065 0.339738 18.271132 1.683339 7.234775 24.789593 21.765723 42.317805 29.950126 66.217121C867.777471 319.755949 862.80011 319.755949 857.823771 319.755949zM689.899224 248.547141c4.025687-3.176342 13.351076-1.040702 19.960611-1.644453 13.085016 23.370267 29.340235 43.603077 41.553395 67.843154C713.602066 322.574135 702.509427 276.701364 689.899224 248.547141zM615.110891 245.219349c4.405333 0 8.870018 0 13.294794 0 8.773827 26.037003 30.367635 39.291888 39.881312 64.591087C638.052392 321.326724 620.884384 267.645105 615.110891 245.219349zM694.912401 313.118785c-15.951297-19.98517-30.651091-41.221844-43.224454-64.571644 5.89015-2.137687 6.0416-3.707438 13.294794-1.644453 10.237155 24.561395 28.602432 41.030485 38.2123 66.216097C700.422905 313.118785 697.648722 313.118785 694.912401 313.118785zM533.635251 236.955128c4.862751-4.350075 9.572006 1.494027 16.59905 0 15.497972 22.122857 31.392988 43.810808 41.59228 71.170946C560.641325 314.06432 547.575752 259.381907 533.635251 236.955128zM616.780927 309.809413c-16.08535-20.440541-29.853935-43.148729-39.921221-69.526493 3.569292-3.725858 5.659907 1.379417 11.623735 0 10.407024 24.391527 21.686928 47.953152 36.577057 67.843154C623.125425 309.565866 620.618325 310.341532 616.780927 309.809413zM505.376651 304.856611c-14.130835-21.819958-29.817096-42.052768-38.249139-69.527516 20.074198 4.803399 29.608342 33.658587 38.249139 48.00841 6.721075 5.977132 12.647041 12.765745 14.963807 23.146163C515.137968 306.141884 508.110925 307.618515 505.376651 304.856611zM541.953707 306.482645c-14.3181-23.258727-29.759791-45.420469-41.590234-71.154573 14.867616-1.684362 16.066931 13.367449 19.97596 21.518083 8.28264 17.283642 27.293623 30.196743 31.564903 49.635467C548.583708 306.482645 545.277406 306.482645 541.953707 306.482645zM438.88733 304.856611c-24.746614-13.462616-36.729529-39.593763-48.220235-66.256006 4.519943-2.080382 9.229199-4.01136 16.598027-3.27151 5.622044 29.139667 28.525684 41.125653 38.250162 66.217121C443.06549 302.379187 441.337125 303.966335 438.88733 304.856611zM445.515285 266.755852c-5.697769-11.628852-20.075221-20.590967-16.618493-31.426757 6.057973-0.548492 10.806113 0.246617 14.94641 1.627057 11.147898 23.712051 28.031427 41.617863 38.249139 66.218144C461.315132 310.398838 452.199521 280.406756 445.515285 266.755852zM380.677581 266.755852c9.419534 9.399067 19.561521 18.057261 23.263843 33.109072C386.868583 298.125303 387.704624 278.572992 380.677581 266.755852zM355.722212 263.446479c2.297322 14.295588 16.219403 16.960277 16.635889 33.088606C347.745541 302.435469 348.353384 276.701364 355.722212 263.446479z"  horiz-adv-x="1024" />

    
    <glyph glyph-name="shuxian" unicode="&#58924;" d="M479.928049 808.364057l64.484663 0 0-838.291414-64.484663 0L479.928049 808.364057 479.928049 808.364057z"  horiz-adv-x="1024" />

    
    <glyph glyph-name="denglu" unicode="&#58883;" d="M736.8 242.4c0 0-124.8 37.6-141.6 60.8L595.2 380.8c0 0 36.8 34.4 36.8 88.8 0 0 25.6 4 25.6 48.8 0 0 4.8 22.4-12 45.6 0 0 20.8 108-16.8 142.4 0 0-34.4 56.8-116.8 61.6-82.4-4.8-116.8-61.6-116.8-61.6-37.6-34.4-16.8-142.4-16.8-142.4C361.6 540.8 366.4 518.4 366.4 518.4c0-44.8 25.6-48.8 25.6-48.8C392 415.2 428.8 380.8 428.8 380.8l0-77.6c-16.8-23.2-141.6-60.8-141.6-60.8C130.4 228 128 52.8 128 52.8c0-55.2 27.2-52.8 27.2-52.8L512 0l356.8 0c0 0 27.2-2.4 27.2 52.8C896 52.8 893.6 228 736.8 242.4z"  horiz-adv-x="1024" />

    
    <glyph glyph-name="yonghu" unicode="&#59064;" d="M272.743336 594.651674c0-31.057343 6.17463-62.101383 18.060331-90.792842 11.883655-28.693506 29.470195-55.012941 51.429323-76.978209 21.964244-21.959128 48.281633-39.542598 76.975139-51.429323 28.693506-11.885701 59.737546-18.061354 90.798982-18.061354 31.057343 0 62.102407 6.175653 90.795912 18.061354 28.692482 11.886725 55.009871 29.470195 76.975139 51.429323 21.959128 21.965268 39.546691 48.284703 51.429323 76.978209 11.886725 28.692482 18.060331 59.735499 18.060331 90.792842 0 31.05939-6.173606 62.105476-18.060331 90.798982-11.882632 28.693506-29.470195 55.012941-51.429323 76.972069-21.965268 21.964244-48.282656 39.548738-76.975139 51.434439-28.693506 11.883655-59.738569 18.060331-90.795912 18.060331-31.061436 0-62.105476-6.176676-90.798982-18.060331-28.693506-11.885701-55.010895-29.470195-76.975139-51.434439-21.959128-21.959128-39.545668-48.279586-51.429323-76.972069C278.916942 656.758174 272.743336 625.711064 272.743336 594.651674L272.743336 594.651674zM272.743336 594.651674M887.080096 106.036267c-3.665483 11.762905-9.121751 23.333428-16.151865 34.586726-18.128893 35.558867-34.764781 61.450561-66.494437 94.232175-72.983221 75.389014-178.317245 119.4096-291.64329 120.06554-156.423609-0.903579-294.850331-89.265046-361.200482-219.414245-7.02909-11.254322-9.423627-23.844058-13.088086-35.606962-8.322549-26.669406-9.332553-62.480007 0.644683-86.638219 9.7869-23.683399 28.02324-43.298132 52.027957-56.290027 23.472598-12.70537 53.423747-19.089777 86.501096-19.536962 0.019443-0.115634 0.048095-0.237407 0.067538-0.35918l235.047294 0 235.048317 0c0.017396 0.12075 0.048095 0.242524 0.064468 0.35918 33.082466 0.447185 63.028499 5.812379 86.504166 18.512632 24.00574 12.991895 41.219797 27.489074 51.007721 51.17759 4.900613 11.871375 9.44307 29.519314 9.727549 47.560202C895.433344 73.366194 891.311467 92.470297 887.080096 106.036267L887.080096 106.036267zM887.080096 106.036267"  horiz-adv-x="1024" />

    
    <glyph glyph-name="jia" unicode="&#59049;" d="M779.184225 372.501108 244.815775 372.501108c-12.397355 0-22.429849 10.042727-22.429849 22.429849s10.032494 22.429849 22.429849 22.429849l534.36845 0c12.397355 0 22.429849-10.042727 22.429849-22.429849S791.58158 372.501108 779.184225 372.501108zM512 105.317906c-12.397355 0-22.429849 10.042727-22.429849 22.429849L489.570151 662.115182c0 12.387122 10.031471 22.429849 22.429849 22.429849 12.397355 0 22.429849-10.042727 22.429849-22.429849l0-534.36845C534.429849 115.360633 524.397355 105.317906 512 105.317906z"  horiz-adv-x="1024" />

    
    <glyph glyph-name="weibiaoti554" unicode="&#58939;" d="M863.460142 661.219789c12.746302 9.595542 10.121522 17.447371-5.832845 17.447371l-693.052542 0c-15.954367 0-18.583241-7.856945-5.843078-17.45965l328.98885-247.964488c12.740162-9.602705 33.592073-9.608845 46.338375-0.013303L863.460142 661.219789zM678.609087 445.20292c-12.746302-9.595542-13.45136-26.15673-1.566682-36.801161l211.248262-189.215456c11.883655-10.643408 10.57587-12.375865-2.908236-3.847631L631.603517 375.852436c-13.484106 8.528234-34.942837 7.653307-47.690162-1.941212l-49.876967-37.550221c-12.746302-9.595542-33.598212-9.589402-46.338375 0.013303l-50.363038 37.960567c-12.740162 9.602705-34.192753 10.475586-47.671743 1.941212l-254.139118-160.925133c-13.478989-8.53642-14.757099-6.840802-2.838651 3.76679l212.452693 189.088566c11.917424 10.606569 11.244089 27.14115-1.496074 36.743856l-257.81381 194.320731c-12.740162 9.602705-23.164582 4.406356-23.164582-11.54801l0-562.683333c0-15.953344 13.053294-29.007661 29.007661-29.007661l838.401931 0c15.954367 0 29.007661 13.054317 29.007661 29.007661l0 562.311873c0 15.954367-10.42749 21.156856-23.173792 11.561313L678.609087 445.20292z"  horiz-adv-x="1024" />

    
    <glyph glyph-name="dayuhao" unicode="&#58932;" d="M119.128713-34.217822 119.128713-128 904.871287 345.980198 904.871287 427.089109 119.128713 896 119.128713 797.148515 836.435644 386.534653 119.128713-34.217822Z"  horiz-adv-x="1024" />

    
    <glyph glyph-name="ren" unicode="&#59014;" d="M652.8 361.6C723.2 406.4 768 486.4 768 576c0 140.8-115.2 256-256 256S256 716.8 256 576c0-89.6 44.8-169.6 115.2-214.4C192 304 64 134.39999999999998 64-64h64c0 211.2 172.8 384 384 384s384-172.8 384-384h64c0 198.4-128 368-307.2 425.6zM512 384c-105.6 0-192 86.4-192 192s86.4 192 192 192 192-86.4 192-192-86.4-192-192-192z"  horiz-adv-x="1024" />

    
    <glyph glyph-name="quxiexin" unicode="&#59006;" d="M96.232034 385.507072l336.260751 31.391198 9.115945 189.376409h-276.492498v94.210352h280.572619l5.072582 98.253716 95.202814-4.006605-4.043363-94.210353h286.637663v-94.210352h-290.717783l-8.086726-180.260464 377.797114 35.434561 9.115945-95.202814-496.3044-46.608946-143.833441-222.862804 437.565367 66.825759-56.717353 93.181133 82.043507 48.630627 167.101156-274.507574-81.014287-47.601407-56.717352 92.188671-582.39127-87.116089-46.608946 71.898341 159.014431 248.188959-193.45653-18.231891-9.115945 95.239573zM1126.333836 68.470673l-13.159308 94.210352 570.261182 74.949243 12.166846-95.202814-569.26872-73.956781z m91.159451 698.913633l656.348051 51.64477 50.615551-56.717352-32.38366-179.30476-94.210353 17.239428 22.275253 118.507287-605.7325-47.601407-4.043363-115.493144-96.232034 4.043363 10.145165 246.130519 95.202814-3.050901-1.984924-35.397803z m578.347908-805.254074l-182.318903 41.536363 22.275253 93.181133 129.644913-31.391198 25.326154 228.927848-512.51461-51.64477-52.673989 54.695671 52.673989 343.391772 94.210353-14.188527-11.137627-72.927561 430.471104-6.065044-1.02922-94.210353-443.630411 4.006605-17.202671-113.434705 510.492929 51.64477 52.673989-52.673989-39.514681-342.325795-57.746572-38.52222zM2108.834231 562.753392l222.826046 224.847728 68.884199-66.825759-84.065188-85.05765 5.072582 0.992462 55.724891-658.369732-95.202815-8.123484-50.652308 581.398809-55.72489-56.75411-66.862517 67.891736z m264.362409 109.391342l221.833585 15.217747-41.536363 75.941705 82.043506 45.579725 61.789935-109.428099-10.145165-6.065045 260.319047 18.231891 7.094263-96.232034-574.304544-37.493-7.094264 94.24711z m84.065188-658.369732l-36.463781 189.413167 46.608946 55.72489 434.514466-2.058439 43.558044-60.760715-52.673989-173.202958-43.558045-32.420418-342.362553-14.188527-49.623088 37.493z m-20.253572 372.761289l439.587049 42.528825 10.145165-94.210353-440.616269-43.558044-9.115945 95.239572z m9.115945 133.688276l440.616269 45.579726 10.108406-94.210352-440.616268-45.542968-10.108407 94.173594z m97.224496-447.673774l268.405772 11.137627 24.296935 78.992605-310.934597 0.992462 18.23189-91.122694z"  horiz-adv-x="3038" />

    
    <glyph glyph-name="name" unicode="&#58880;" d="M513.849 710.837h417.004c12.766 0 25.53-8.51 25.53-25.53v0-591.465c0-12.766-12.766-25.53-25.53-25.53v0l-417.004-0v51.062h391.473l0 540.402h-391.473v51.062zM513.849 251.281h263.819c12.766 0 21.276 8.51 21.276 21.276 0 8.51-8.51 21.276-21.276 21.276h-263.819v-42.551zM513.849 378.936h263.819c12.766 0 21.276 8.51 21.276 17.021 0 12.766-8.51 21.276-21.276 21.276h-263.819v-38.296zM513.849 502.334h263.819c12.766 0 21.276 8.51 21.276 21.276s-8.51 21.276-21.276 21.276h-263.819v-42.551zM92.59 710.837h421.259v-51.062h-395.729v-540.403h395.729v-51.062l-421.259-0c-12.766 0-25.53 12.766-25.53 25.53v591.465c-0.001 17.021 12.765 25.531 25.53 25.531v0zM513.849 544.886h-268.075c-12.766 0-21.276-8.51-21.276-21.276s8.51-21.276 21.276-21.276h268.075v42.551zM513.849 417.232h-268.075c-12.766 0-21.276-8.51-21.276-21.276 0-8.51 8.51-17.021 21.276-17.021h268.075v38.296zM513.849 293.832h-268.075c-12.766 0-21.276-12.766-21.276-21.276 0-12.766 8.51-21.276 21.276-21.276h268.075v42.551z"  horiz-adv-x="1024" />

    
    <glyph glyph-name="hicon1" unicode="&#58881;" d="M511.924-127.81c-282.643 0-511.791 229.186-511.791 511.905s229.148 511.905 511.791 511.905c282.662 0 511.81-229.186 511.81-511.905s-229.148-511.905-511.81-511.905zM775.68 278.661v8.439l-0.948 8.514-1.384 9.614-1.745 9.387-1.403 4.817-1.346 5.139-1.783 4.873-1.82 5.442-2.105 5.139-2.295 5.272-4.058 8.609-3.622 7.566-3.603 6.77-3.148 6.315-3.603 5.765-2.655 5.291-5.613 7.87-7.054 10.505-1.631 2.598-0.55 1.1v0.872l1.195 3.546 1.612 3.167 1.441 6.22 0.796 3.224v3.337l0.398 2.674v2.693l-0.398 3.072-0.493 2.522-1.024 5.12-1.346 4.968-1.233 4.57-1.915 4.418-2.181 3.717-1.707 3.47-1.896 3.3-2.977 4.892-1.119 1.745-0.322 1.498-1.384 9.463-0.872 6.239-1.005 7.718-1.574 7.964-2.465 9.159-1.384 5.12-1.119 4.343-1.536 5.044-1.726 5.367-1.745 4.968-2.219 5.367-4.513 10.335-2.674 4.873-3.224 5.613-3.034 4.817-3.015 5.442-4.305 5.044-3.603 4.892-4.418 5.044-4.475 4.57-4.532 4.418-5.348 4.589-2.825 1.65-2.655 2.295-5.803 4.020-6.694 4.343-6.827 3.925-7.035 3.565-14.943 6.296-7.528 2.693-8.249 2.219-7.509 1.953-8.021 1.726-7.585 1.82-8.192 0.872-8.002 0.948-7.983 1.024h-23.931l-8.116-0.455-15.189-2.067-7.699-1.252-7.623-1.441-7.244-1.726-7.206-2.295-6.713-2.276-6.713-2.2-6.751-3.243-6.353-2.598-5.632-3.167-5.879-3.546-5.423-3.698-5.329-4.191-4.418-3.868-6.903-6.372-5.727-5.935-5.48-5.746-5.025-5.841-4.722-5.992-4.134-5.841-4.039-5.841-1.858-2.598-1.726-3.148-3.774-5.537-2.977-5.518-2.655-5.196-2.313-5.537-2.257-5.044-1.877-4.722-1.745-5.044-1.745-4.665-2.332-8.439-1.707-8.116-0.948-6.789-0.967-5.841v-11.359l-1.631-1.745-1.498-2.351-1.176-2.143-1.005-2.276-1.271-4.968-1.403-4.57-0.474-4.115-0.303-2.996v-3.224l-3.224-4.589-2.276-4.57-1.726-4.418-1.271-3.925-1.005-3.793-0.948-3.565v-9.064l0.55-2.2 0.796-4.039 1.005-3.072-1.801-1.346-5.044-3.698-6.656-5.992-4.096-3.546-3.982-3.47-2.769-2.769-2.257-2.446-4.873-5.12-4.627-5.12-3.603-4.437-4.324-6.372-4.153-5.765-4.077-6.391-3.451-5.916-2.844-6.296-3.034-5.841-2.219-5.765-2.332-5.992-1.745-5.841-1.707-5.992-1.517-5.215-0.853-5.594-0.929-5.196-0.796-5.063-0.474-9.842v-13.255l0.474-4.039 1.271-6.846 0.455-3.015 0.853-3.053 1.043-2.92 0.948-2.067 1.536-3.793 1.195-0.777 0.721-1.574 0.91-0.398h0.948l4.020 0.398 4.077 1.024 3.451 1.327 3.622 2.295 3.281 2.143 2.996 2.75 3.205 2.92 2.75 2.996 2.579 3.394 2.351 3.072 2.219 2.522 1.384 2.92 2.693 4.817 0.834 1.972 0.474 1.195 0.247 1.327 0.626 1.1 0.493 0.247 0.929 0.474h0.55l0.247-0.474h0.455l0.474-0.247 1.498-6.542 1.631-5.272 2.2-5.537 2.219-4.968 1.858-4.968 2.863-4.343 2.105-4.57 2.332-4.191 2.75-3.622 2.067-3.47 5.461-6.466 4.817-5.765 4.608-4.494 4.551-4.020 3.944-3.148 5.86-5.12 2.37-1.119 0.796-1.1v-0.531l-0.569-0.493h-0.228l-1.176-0.398-4.399-0.322-4.096-0.55-3.451-0.455-3.603-0.796-6.277-1.896-2.75-1.422-2.181-1.327-2.75-0.872-1.726-1.422-1.877-1.1-1.991-1.574-2.484-3.091-0.967-1.422-1.138-1.252-1.593-3.224-0.872-2.693-1.024-2.674-0.228-2.37v-4.418l-0.455-2.2v-2.238l-0.55-2.2v-1.972l0.55-2.124 0.455-1.896 1.252-3.698 0.872-1.745 1.1-1.726 1.233-1.726 1.365-1.517 1.783-1.726 1.346-1.422 4.020-2.92 4.001-2.446 4.608-2.219 4.949-1.972 5.253-2.124 5.822-1.327 5.803-1.896 6.277-1.271 6.277-0.948 6.428-0.948 6.675-0.948 13.141-1.346 13.54-0.228h24.007l5.879 0.228 5.044 0.569 9.406 0.777 7.301 1.422 5.253 1.422 5.025 1.271 9.254 3.793 4.172 1.555 4.001 1.972 6.599 3.641 5.954 2.92 4.399 2.769 3.224 2.92 5.025-0.569 3.906-0.398 7.699-0.55h6.675l2.332-0.474 2.389-0.929 3.774-1.365 4.21-1.403 8.002-2.446 8.192-2.92 7.983-2.295 8.021-1.574 8.211-2.048 8.495-1.195 8.059-0.853 8.097-1.119 7.547-0.702 8.097-0.474h22.433l7.225 0.872 7.054 0.303 6.827 1.119 6.277 1.346 6.277 1.327 6.030 1.422 2.503 0.702 2.788 0.872 5.234 2.048 4.646 2.124 4.361 2.2 4.096 2.313 3.603 2.674 1.441 1.422 1.707 1.972 2.181 2.598 2.37 3.243 0.891 1.65 0.379 1.346 1.005 1.745 0.398 1.877v1.82l0.474 1.801-0.474 2.693-0.398 2.276-1.005 2.693-0.777 2.2-1.517 2.693-1.783 2.446-1.745 2.124-2.351 1.82-4.798 4.096-5.404 3.944-5.442 3.167-5.708 3.224-13.103 6.315-3.129 1.877-0.853 0.891-0.569 0.55 6.296 6.22 2.75 3.072 2.257 2.844 4.399 6.239 4.153 6.391 3.508 5.67 3.337 5.442 4.456 10.885 3.451 9.064 2.295 6.409 1.308 2.124 0.796 1.726 1.384 1.024h0.569l0.398-0.228 3.375-6.561 2.996-6.296 2.124-3.565 2.181-3.053 2.181-3.812 2.788-3.698 2.332-2.598 1.403-1.422 1.422-1.271 1.271-0.948 1.233-0.853 2.674-1.346 1.403-0.474h2.181l1.441 0.474 1.745 0.872 1.934 0.872 1.631 1.403 1.517 1.669 1.707 2.048 1.346 1.574 1.498 2.522 1.157 2.067 1.346 2.92 0.721 2.446 1.953 5.973 1.271 6.637 0.91 7.32 0.626 4.267v3.565z"  horiz-adv-x="1024" />

    
    <glyph glyph-name="cloud-params" unicode="&#59145;" d="M331.95 607.086V674.7c0 37.018-30.126 67.144-67.144 67.144-37.019 0-67.144-30.125-67.144-67.144v-67.614c-27.037-20.479-44.763-52.551-44.763-89.055 0-36.504 17.726-68.576 44.763-89.01v-336.234c0-37.019 30.125-67.144 67.144-67.144 37.018 0 67.144 30.125 67.144 67.144V429.021c27.037 20.412 44.762 52.506 44.762 89.01 0 36.505-17.725 68.576-44.762 89.055zM242.42499999999998 674.7c0 12.377 10.004 22.381 22.381 22.381s22.381-10.004 22.381-22.381v-47a113.27 113.27 0 0 1-22.381 2.238c-7.677 0-15.152-0.783-22.381-2.238v47z m44.763-581.912c0-12.377-10.004-22.381-22.381-22.381s-22.381 10.004-22.381 22.381v315.62a110.061 110.061 0 0 1 22.381-2.283c7.677 0 15.152 0.783 22.381 2.283v-315.62z m41.741 406.443c-0.358-1.186-0.671-2.35-1.096-3.536-2.126-5.908-4.857-11.504-8.46-16.472-0.09-0.135-0.224-0.224-0.314-0.358a67.722 67.722 0 0 0-13.786-14.033 1.22 1.22 0 0 0-0.224-0.179 66.304 66.304 0 0 0-17.883-9.624c-7.005-2.529-14.458-4.141-22.359-4.141s-15.354 1.611-22.381 4.163a66.291 66.291 0 0 0-17.883 9.624c-0.067 0.045-0.134 0.089-0.224 0.178a67.706 67.706 0 0 0-13.787 14.034c-0.09 0.134-0.224 0.224-0.313 0.358-3.603 4.991-6.334 10.586-8.46 16.473-0.425 1.186-0.739 2.35-1.097 3.536-1.768 5.976-2.999 12.22-2.999 18.778 0 6.602 1.231 12.846 3.021 18.845 0.358 1.186 0.671 2.35 1.097 3.492 2.104 5.908 4.834 11.504 8.46 16.518 0.09 0.134 0.224 0.224 0.313 0.358 3.894 5.282 8.527 10.05 13.787 14.033 0.09 0.045 0.157 0.135 0.224 0.179 5.372 4.007 11.392 7.297 17.86 9.602 7.027 2.507 14.48 4.118 22.381 4.118s15.354-1.611 22.381-4.118a68.855 68.855 0 0 0 17.882-9.624c0.067-0.045 0.135-0.135 0.224-0.179 5.26-3.984 9.893-8.751 13.787-14.033 0.089-0.135 0.224-0.224 0.313-0.358 3.604-4.991 6.334-10.586 8.438-16.495 0.425-1.142 0.761-2.305 1.096-3.492 1.79-5.998 3.021-12.242 3.021-18.845 0.002-6.559-1.229-12.803-3.019-18.802zM824.338 607.086V674.7c0 37.018-30.126 67.144-67.144 67.144S690.05 711.719 690.05 674.7v-67.614c-27.059-20.479-44.762-52.551-44.762-89.055 0-36.504 17.704-68.576 44.762-89.01v-336.234c0-37.019 30.125-67.144 67.144-67.144 37.018 0 67.144 30.125 67.144 67.144V429.021c27.014 20.412 44.763 52.506 44.763 89.01-0.001 36.505-17.749 68.576-44.763 89.055zM734.813 674.7c0 12.377 10.004 22.381 22.381 22.381s22.381-10.004 22.381-22.381v-47a113.613 113.613 0 0 1-22.381 2.238c-7.699 0-15.175-0.783-22.381-2.238v47z m44.762-581.912c0-12.377-10.004-22.381-22.381-22.381s-22.381 10.004-22.381 22.381v315.62a109.74 109.74 0 0 1 22.381-2.283c7.654 0 15.13 0.783 22.381 2.283v-315.62z m41.741 406.443c-0.358-1.186-0.694-2.35-1.096-3.536-2.149-5.908-4.857-11.504-8.483-16.472-0.089-0.135-0.224-0.224-0.313-0.358a68.2 68.2 0 0 0-13.765-14.033c-0.09-0.09-0.179-0.135-0.224-0.179-5.416-4.073-11.414-7.341-17.883-9.624-7.005-2.529-14.48-4.141-22.358-4.141-7.923 0-15.354 1.611-22.381 4.163a65.944 65.944 0 0 0-17.882 9.624 0.78 0.78 0 0 0-0.224 0.178 67.296 67.296 0 0 0-13.81 14.034c-0.089 0.134-0.224 0.224-0.313 0.358-3.581 4.991-6.334 10.586-8.438 16.473-0.448 1.186-0.739 2.35-1.097 3.536-1.768 5.976-2.999 12.22-2.999 18.778 0 6.602 1.231 12.846 3.021 18.845 0.358 1.186 0.649 2.35 1.096 3.492 2.104 5.908 4.857 11.504 8.438 16.518 0.089 0.134 0.224 0.224 0.313 0.358 3.894 5.282 8.528 10.05 13.809 14.033 0.09 0.045 0.135 0.135 0.224 0.179a68.48 68.48 0 0 0 17.883 9.624c7.005 2.485 14.436 4.096 22.359 4.096 7.878 0 15.354-1.611 22.381-4.118a69.228 69.228 0 0 0 17.882-9.624 0.968 0.968 0 0 1 0.224-0.179c5.238-3.984 9.87-8.751 13.764-14.033 0.09-0.135 0.224-0.224 0.314-0.358 3.626-5.036 6.334-10.631 8.482-16.518 0.403-1.141 0.739-2.327 1.097-3.491 1.768-5.976 2.999-12.22 2.999-18.823 0.002-6.559-1.229-12.803-3.02-18.802zM578.144 338.51099999999997V674.7c0 37.018-30.125 67.144-67.144 67.144s-67.144-30.125-67.144-67.144v-336.189c-27.037-20.456-44.762-52.55-44.762-89.055 0-36.504 17.726-68.576 44.762-89.01v-67.659c0-37.019 30.126-67.144 67.144-67.144s67.144 30.125 67.144 67.144v67.659c27.014 20.411 44.763 52.506 44.763 89.01-0.001 36.505-17.749 68.576-44.763 89.055zM488.619 674.7c0 12.377 10.004 22.381 22.381 22.381s22.381-10.004 22.381-22.381v-315.576c-7.251 1.432-14.727 2.238-22.381 2.238-7.677 0-15.152-0.783-22.381-2.238V674.7z m44.762-581.912c0-12.377-10.004-22.381-22.381-22.381s-22.381 10.004-22.381 22.381v47.045A110.061 110.061 0 0 1 511.00000000000006 137.54999999999995c7.654 0 15.13 0.783 22.381 2.283v-47.045z m41.741 137.868c-0.358-1.186-0.694-2.35-1.096-3.536-2.149-5.908-4.857-11.504-8.483-16.472-0.089-0.135-0.224-0.224-0.313-0.358a68.22 68.22 0 0 0-13.764-14.033c-0.09-0.09-0.179-0.135-0.224-0.179-5.416-4.073-11.414-7.341-17.883-9.624-7.005-2.529-14.481-4.141-22.359-4.141-7.901 0-15.354 1.611-22.381 4.163a66.27 66.27 0 0 0-17.882 9.624c-0.067 0.045-0.135 0.089-0.224 0.178a67.706 67.706 0 0 0-13.787 14.034c-0.089 0.134-0.224 0.224-0.313 0.358-3.604 4.991-6.334 10.587-8.46 16.473-0.426 1.186-0.739 2.35-1.097 3.536-1.768 5.976-2.999 12.22-2.999 18.778 0 6.602 1.231 12.846 3.021 18.845 0.358 1.186 0.671 2.35 1.096 3.492 2.126 5.908 4.857 11.504 8.46 16.518 0.09 0.134 0.224 0.224 0.314 0.358 3.894 5.282 8.527 10.05 13.786 14.033 0.09 0.045 0.156 0.135 0.224 0.179a68.832 68.832 0 0 0 17.883 9.624c7.005 2.485 14.458 4.096 22.359 4.096 7.878 0 15.354-1.611 22.381-4.118a69.228 69.228 0 0 0 17.882-9.624 0.968 0.968 0 0 1 0.224-0.179c5.238-3.984 9.87-8.751 13.764-14.033 0.09-0.135 0.224-0.224 0.314-0.358 3.626-5.036 6.334-10.631 8.482-16.518 0.403-1.141 0.739-2.327 1.097-3.491 1.768-5.977 2.999-12.221 2.999-18.823 0.001-6.559-1.23-12.804-3.021-18.802z"  horiz-adv-x="1024" />

    
    <glyph glyph-name="shuminghaoyou" unicode="&#58897;" d="M26.918306 125.123596c-16.183726-17.827386-16.183726-45.26386 0-61.447587 17.827386-16.183726 45.26386-16.183726 61.447586 0l385.122114 292.697864c8.091863 9.735523 12.896407 20.98827 11.379183 34.011113 1.64366 12.896407-1.64366 24.27559-11.379183 34.011112L88.365892 721.013458c-17.827386 16.183726-45.26386 16.183726-61.447586 0-16.183726-17.827386-16.183726-45.26386 0-61.447586l357.685641-269.307322L26.918306 125.123596zM384.603947 390.25855M462.235259 37.75676c-16.183726-17.827386-16.183726-45.26386 0-61.447586 17.827386-16.183726 45.26386-16.183726 61.447586 0l470.971725 380.064699c8.091863 9.735523 12.896407 20.98827 11.379183 34.011113 1.64366 12.896407-1.64366 24.27559-11.379183 34.011112L523.809281 806.736634c-17.827386 16.183726-45.26386 16.183726-61.447587 0-16.183726-17.827386-16.183726-45.26386 0-61.447586L905.644075 390.25855 462.235259 37.75676zM905.644075 390.25855"  horiz-adv-x="1024" />

    
    <glyph glyph-name="dianyuan" unicode="&#59185;" d="M756.622222 685.511111l-39.822222-39.822222C796.444444 577.422222 853.333333 475.022222 853.333333 355.555556c0-204.8-164.977778-369.777778-369.777777-369.777778S113.777778 150.755556 113.777778 355.555556c0 119.466667 56.888889 227.555556 147.911111 295.822222l-39.822222 39.822222C119.466667 617.244444 56.888889 492.088889 56.888889 355.555556 56.888889 122.311111 250.311111-71.111111 483.555556-71.111111S910.222222 122.311111 910.222222 355.555556c0 130.844444-62.577778 250.311111-153.6 329.955555zM455.111111 839.111111h56.888889v-512H455.111111z"  horiz-adv-x="1024" />

    
    <glyph glyph-name="shuminghaoyou1" unicode="&#58900;" d="M997.081694 642.8764040000002c16.183725999999993 17.827386000000008 16.183725999999986 45.26386000000001-2.1316282072803006e-14 61.447587-17.827386000000008 16.183725999999993-45.26386000000001 16.183725999999986-61.447586-1.7763568394002505e-14l-385.1221139999999-292.69786400000004c-8.091862999999995-9.735523000000004-12.896406999999993-20.988270000000007-11.379182999999987-34.011113-1.6436599999999952-12.896407 1.6436600000000094-24.27559 11.379183000000008-34.01111199999999L935.6341080000002 46.9865420000001c17.827386000000008-16.183725999999993 45.26386000000001-16.183725999999986 61.447586 1.7763568394002505e-14 16.183725999999993 17.827386000000008 16.183725999999986 45.26386000000001-1.7763568394002505e-14 61.447586l-357.6856410000001 269.3073219999999L997.081694 642.8764040000002zM639.3960529999999 377.7414500000001M561.764741 730.24324c16.183725999999993 17.827386000000008 16.183725999999986 45.26386000000001-1.7763568394002505e-14 61.447586-17.827386000000008 16.183725999999993-45.26386000000001 16.183725999999986-61.447586-1.7763568394002505e-14l-470.9717249999999-380.0646990000002c-8.091862999999995-9.735523000000004-12.896406999999993-20.988270000000007-11.379182999999987-34.011113-1.6436599999999952-12.896407 1.6436600000000094-24.27559 11.379183000000008-34.01111199999999L500.1907190000001-38.73663399999998c17.827386000000008-16.183725999999993 45.26386000000001-16.183725999999986 61.447587 2.1316282072803006e-14 16.183725999999993 17.827386000000008 16.183725999999986 45.26386000000001-1.7763568394002505e-14 61.447586L118.35592499999996 377.74144999999976 561.764741 730.24324zM118.35592499999996 377.74144999999976"  horiz-adv-x="1024" />

    
    <glyph glyph-name="shenfen" unicode="&#58927;" d="M168.595 746.78c-60.708 0-104.463-43.607-104.463-104.464v-507.385c0-60.857 43.754-104.464 104.463-104.464h686.468c60.708 0 104.462 43.607 104.462 104.464V642.316c0 60.857-43.754 104.464-104.462 104.464H168.595z m686.47-671.543h-686.47c-37.734 0-59.694 21.874-59.694 59.694V642.316c0 37.828 21.968 59.695 59.694 59.695h686.468c37.725 0 59.692-21.87 59.692-59.695v-507.385s-14.008-59.694-59.69-59.694zM607.18 478.164h152.53c11.437 0 20.738 10.038 20.738 22.385 0 12.342-9.302 22.382-20.738 22.382H607.18c-11.434 0-20.735-10.04-20.735-22.382 0-12.347 9.301-22.385 20.736-22.385z m0-119.388h152.53c11.437 0 20.738 10.043 20.738 22.383 0 12.35-9.302 22.386-20.738 22.386H607.18c-11.434 0-20.735-10.035-20.735-22.386 0-12.34 9.301-22.383 20.736-22.383z m227.051-74.613H607.274c-11.485 0-20.828-10.044-20.828-22.389 0-12.343 9.343-22.378 20.828-22.378h226.958c11.49 0 20.832 10.035 20.832 22.378 0 12.346-9.343 22.39-20.832 22.39z m-343.14 29.59c-24.427 25.951-55.645 44.86-90.273 54.678l-2.922 0.824 2.677 1.423c37.432 19.828 60.687 57.796 60.687 99.098 0 62.225-51.193 112.85-114.116 112.85-62.944 0-114.15-50.624-114.15-112.85 0-41.29 23.244-79.254 60.67-99.083l2.677-1.422-2.917-0.831c-34.536-9.787-65.696-28.617-90.116-54.46-24.924-26.376-41.725-59.003-48.579-94.347-1.057-5.392 0.079-10.862 3.194-15.406 3.119-4.548 7.87-7.628 13.327-8.67a20.76 20.76 0 0 1 4.14-0.427c9.809 0 18.297 7.05 20.194 16.768 13.879 71.605 78.184 117.036 152.09 117.036 74.142 0 137.304-45.661 150.996-117.567 1.843-9.7 10.432-16.741 20.412-16.741 1.375 0 2.65 0.11 3.885 0.343 11.27 2.116 18.708 12.89 16.575 24.028-6.759 35.507-23.514 68.269-48.451 94.756zM347.69 537.856c41.136 0 74.6-33.474 74.6-74.62 0-41.138-33.464-74.613-74.6-74.613-41.152 0-74.633 33.475-74.633 74.614 0.001 41.146 33.48 74.62 74.633 74.62z m0 0"  horiz-adv-x="1024" />

    
    <glyph glyph-name="wenjianshangchuan" unicode="&#59168;" d="M937.472 192l-204.8 256c-4.096 4.608-9.728 7.68-15.872 7.68s-12.288-3.072-15.872-7.68l-204.8-256c-5.12-6.144-5.632-14.336-2.56-21.504 3.584-7.168 10.752-11.776 18.432-11.776h133.12v-133.12c0-39.424 32.256-71.68 71.68-71.68s71.68 32.256 71.68 71.68v133.12h133.12c7.68 0 14.848 4.608 18.432 11.776s2.56 15.36-2.56 21.504zM768 199.68c-11.264 0-20.48-9.216-20.48-20.48v-153.6c0-16.896-13.824-30.72-30.72-30.72s-30.72 13.824-30.72 30.72v153.6c0 11.264-9.216 20.48-20.48 20.48h-111.104L716.8 402.432l162.304-202.752H768zM512-5.12H163.84c-22.528 0-40.96 18.432-40.96 40.96V465.92h225.28c45.056 0 81.92 36.864 81.92 81.92V773.12h327.68c22.528 0 40.96-18.432 40.96-40.96v-245.76c0-11.264 9.216-20.48 20.48-20.48s20.48 9.216 20.48 20.48V732.16c0 45.056-36.864 81.92-81.92 81.92H412.16c-6.144 1.024-12.288-1.024-16.896-5.632l-307.2-307.2c-4.608-4.608-6.656-11.264-5.632-16.896v-448c0-45.056 36.864-81.92 81.92-81.92h348.16c11.264 0 20.48 9.216 20.48 20.48s-9.728 19.968-20.992 19.968zM348.16 506.88H152.064L389.12 743.936V547.84c0-22.528-18.432-40.96-40.96-40.96z"  horiz-adv-x="1024" />

    
    <glyph glyph-name="weixin" unicode="&#58882;" d="M472.448 539.114c0-19.584 15.874-35.458 35.453-35.458 19.585 0 35.457 15.874 35.457 35.458a35.46 35.46 0 0 1-17.728 30.705 35.46 35.46 0 0 1-35.454 0 35.462 35.462 0 0 1-17.728-30.705z m0 0M327.14 574.567c-19.564 0-35.427-15.863-35.427-35.427 0-19.569 15.863-35.432 35.427-35.432 19.57 0 35.433 15.863 35.433 35.432 0 19.564-15.863 35.427-35.433 35.427z m0 0M567.707 355.84c0-15.324 12.422-27.752 27.747-27.752 15.329 0 27.752 12.428 27.752 27.752 0 15.325-12.423 27.753-27.752 27.753-15.325 0-27.747-12.428-27.747-27.753z m0 0M511.998 896C229.222 896 0 666.78 0 384.004 0 101.229 229.222-128 511.998-128S1024 101.229 1024 384.004C1024 666.78 794.773 896 511.998 896z m-98.684-654.798c-31.848 0-57.447 6.506-89.374 12.801l-89.188-44.696 25.523 76.726c-63.872 44.62-102.093 102.144-102.093 172.235 0 121.395 114.869 216.957 255.106 216.957 125.435 0 235.311-76.361 257.403-179.172a217.037 217.037 0 0 1-24.547 1.513c-121.191 0-216.911-90.449-216.911-201.909 0-18.559 2.896-36.402 7.885-53.454-7.859-0.592-15.795-1.001-23.804-1.001z m376.292-89.343l19.2-63.77-69.968 38.325c-25.522-6.398-51.121-12.804-76.54-12.804-121.37 0-216.987 82.945-216.987 185.114 0 101.992 95.592 185.141 216.987 185.141C776.933 483.867 879 400.717 879 298.726c-0.025-57.524-38.171-108.465-89.394-146.867z m0 0M706.714 355.84c0-15.324 12.423-27.752 27.747-27.752 15.329 0 27.752 12.428 27.752 27.752 0 15.325-12.423 27.753-27.752 27.753-15.324 0-27.747-12.428-27.747-27.753z m0 0"  horiz-adv-x="1024" />

    
    <glyph glyph-name="jian" unicode="&#58947;" d="M0 464.842105h1024v-161.68421H0z"  horiz-adv-x="1024" />

    
    <glyph glyph-name="sql" unicode="&#58896;" d="M256.4 848.6c-11.2-4-29.4-20.8-36-33.4l-5.4-10.2v-349.4l5.6-4.8c8.2-7 19.4-6.6 27.8 1l6.6 5.8 1 172.4 1 172.4 4.6 3.6c2.4 2 9.2 4.2 15 5 5.6 0.6 116.8 1 246.8 0.6l236.6-0.6 88-88c68.6-68.4 88.4-89.6 90-95 2.8-10 2.6-646.4-0.2-656.6-1.2-4.2-4.2-8.8-7.4-11-4.8-3.2-25-3.4-324.4-4-175.4-0.4-323.8 0-329.8 0.6-7.4 1-12.2 2.8-15.4 6-4.4 4.4-4.8 6.6-4.8 23.4 0 15-0.8 19.8-4 25.2-7.6 12.4-23.4 13.4-33 2-5.2-6.2-5.4-7-4.6-28.4 1-26.8 5.2-37 22.4-52.6 19.8-18.2-13.2-16.6 362-16.6h332.2l10.4 4.8c13.4 6.4 27.6 20.6 33.8 34l4.8 10.6-0.4 337.8-0.6 337.8-5.8 10.8c-4.2 8.4-26.8 32.2-96 101.4-85 85.2-90.8 90.6-101.8 94.6-11.4 4.2-12.8 4.2-261 4-217 0-250.6-0.6-258-3.2zM733.6 782.2l-6.6-5.8v-125.4l5.6-11.2c6.2-12.6 20.4-27 33.6-34.2 8.6-4.4 10.2-4.6 71.2-5.2 69.2-0.6 71.6-0.2 76.6 11.6 3.6 8.6 0.6 19.4-6.6 24.8-5.4 4-8.8 4.2-67 5.2-33.8 0.6-62.6 1.8-64.2 2.8-7.2 4.6-8.2 13.8-8.2 71 0 60.4-0.6 64.4-10.2 69.4-8.8 4.4-17 3.4-24.2-3zM90.6 423.2c-17.8-5.6-33.2-19.6-41.8-38l-4.8-10.2v-139.2c0-162-1.2-150.8 19.8-172 21.8-21.8-10.2-20 323.2-19.4l290 0.6 9 4.6c12 6.2 26.4 20.6 32.2 32l4.8 9.4 0.6 142 0.4 142-6 12.4c-7.6 15.2-22.2 29-37.2 34.4-10.8 4.2-13.2 4.2-296.4 4-229 0-287-0.6-293.8-2.6z m586.4-44c2.6-2.6 5.2-7.8 6-11.4 0.6-3.8 1-66.4 0.6-139.2l-0.6-132.6-5.6-5.4-5.4-5.6H96l-5.4 5.6-5.6 5.4-0.6 132.6c-0.4 72.8 0 135.4 0.6 139.2 0.8 3.6 3.4 8.8 6 11.4l4.8 4.8h576.4l4.8-4.8zM375 342.6c-44.4-4.6-74.4-29-87.4-71.6-5.8-18.6-6.2-50-0.8-70.4 13.4-53 63.8-83.4 118.8-71.8l12.6 2.6 17.4-18.8c9.6-10.4 19.8-20.2 22.8-21.8 14.6-7.6 29.6 1.4 29.6 18 0 8.6-0.8 9.8-17.2 27l-17.2 18.2 6 7.4c15.2 19.4 22.4 42.6 22.4 73.4 0 42.2-15.4 73.6-46 93.6-14.6 9.4-43 16-61 14.2z m27.2-43.8c15-4.4 29.4-19.2 34.8-35.8 4.6-13.8 5.2-40.8 1.4-54.4-4.4-15.2-14.2-27-28.2-34-11.2-5.8-14.8-6.6-28-6.6-19 0-32.2 5.6-42.8 18.2-24.4 28.4-18.6 88.4 10 106 15.8 9.8 34.2 12 52.8 6.6zM519 339.6c-11.2-6.2-11-2.6-11-104.6 0-86 0.4-94.4 3.6-98.2 6.6-8.2 10.2-8.8 61.4-8.8 55.2 0 59 0.8 64.2 13.4 4 9.4 0.8 19.4-8 24.8-5.6 3.4-10.2 3.8-43.6 3.8H548v79c0 87.2 0.2 86.4-12.4 90.8-7.8 2.8-11.4 2.6-16.6-0.2zM184 338.2c-33.2-10.2-52-45.2-41-76.4 7-19.4 20-29.4 55-41.6 30.8-10.8 36.6-17.6 29.2-34.8-5-11.6-11.8-16.2-26.2-17-17.4-1.2-21.8 0.2-32.8 10.6-5.4 5-12.4 9.6-15.6 10.2-14.2 2.8-27.2-12.4-22.6-26.2 3-9 19.6-24.2 33.2-30.4 23.6-10.8 56.4-8 78.2 6.6 33.2 22.6 39 74 11 99.2-10.2 9.2-18 13.2-42.8 21.6-24 8.2-28 11.4-27.2 22.4 0.8 11.4 8 16.6 22.6 16.4 9.2 0 12-1 19.4-6.8 14.2-11.4 30.6-8.2 35.6 7 2 6 1.8 8.2-1.4 14.4-4.6 9.6-18 19.6-31 23.6-10.8 3.2-35 3.8-43.6 1.2z"  horiz-adv-x="1024" />

    
    <glyph glyph-name="shouye_" unicode="&#58894;" d="M135.045632 306.176v-345.088c0-25.6 20.48-47.104 47.104-47.104h254.976V227.328c0 38.912 31.744 69.632 69.632 69.632h12.288c38.912 0 69.632-31.744 69.632-69.632v-313.344h254.976c25.6 0 47.104 20.48 47.104 47.104V306.176c0 13.312 10.24 23.552 23.552 23.552h88.064c13.312 0 23.552 10.24 23.552 23.552 0 6.144-3.072 12.288-7.168 17.408L508.805632 854.016 7.045632 369.664c-9.216-9.216-9.216-23.552-1.024-32.768 4.096-4.096 10.24-7.168 16.384-7.168h87.04c14.336-1.024 25.6-11.264 25.6-23.552z"  horiz-adv-x="1025" />

    
    <glyph glyph-name="xueqi" unicode="&#58915;" d="M512 896A512 512 0 1 1 1024 384 512.538947 512.538947 0 0 1 512 896z m0-970.105263A458.105263 458.105263 0 1 0 970.105263 384 458.644211 458.644211 0 0 0 512-74.105263zM751.292632 297.229474H485.052632V600.656842a26.947368 26.947368 0 0 1-53.894737 0v-330.374737a26.947368 26.947368 0 0 1 26.947368-26.947368h293.187369a26.947368 26.947368 0 0 1 0 53.894737z"  horiz-adv-x="1024" />

    
    <glyph glyph-name="jinxiaocun" unicode="&#59002;" d="M962.18176 629.312v-298.688C962.18176 289.6 930.50176 256 891.78176 256H328.58176C289.86176 256 258.18176 289.6 258.18176 330.688V629.312C258.18176 670.4 289.86176 704 328.58176 704h563.2c38.72 0 70.4-33.6 70.4-74.688zM960.06976 162.88a34.304 34.304 0 0 0-34.304-34.88H297.66976C209.22176 128 137.22176 213.184 137.22176 317.184V826.176H34.30976c-19.2 0-34.304 15.36-34.304 34.88A34.304 34.304 0 0 0 34.30976 896h137.152c19.2 0 34.304-15.36 34.304-34.88v-543.872c0-64.96 41.856-119.36 91.904-119.36h628.096c19.2-0.064 34.304-15.424 34.304-35.008zM377.66976-32m-96 0a96 96 0 1 1 192 0 96 96 0 1 1-192 0ZM802.18176-32m-96 0a96 96 0 1 1 192 0 96 96 0 1 1-192 0Z"  horiz-adv-x="1026" />

    
    <glyph glyph-name="hengxian" unicode="&#59213;" d="M297.642667 469.333333h762.88v-170.666666H297.642667z"  horiz-adv-x="1365" />

    
    <glyph glyph-name="denglu1" unicode="&#58893;" d="M496.3 157.7h62.2v-121.8h-62.2zM558.5 25.6h-62.2c-5.7 0-10.4 4.7-10.4 10.4V157.7c0 5.7 4.7 10.4 10.4 10.4h62.2c5.7 0 10.4-4.7 10.4-10.4V36c0-5.8-4.6-10.4-10.4-10.4z m-51.8 20.8h41.4v101h-41.4v-101zM717.7 21.2H371.1c-10.3 0-18.7-8.4-18.7-18.7 0-10.3 8.4-18.7 18.7-18.7h346.6c10.3 0 18.7 8.4 18.7 18.7 0 10.3-8.4 18.7-18.7 18.7zM807.2 571.2c-0.3 0-0.6 0.1-0.9 0.1H280.2c-15.3 0-27.7-12.4-27.7-27.7v-357.4c0-1.8 0.2-3.5 0.5-5.2 2.4-12.8 13.7-22.6 27.2-22.6h128.9c372.5 71.7 404 306.3 398.1 412.8zM806.3 158.3c15.3 0 27.7 12.4 27.7 27.7V543.5c0 15-11.9 27.2-26.8 27.6C813 464.6 781.6 230 409.1 158.3h397.2zM710.3-26.7H344.5c-20.1 0-36.5 16.4-36.5 36.5s16.4 36.5 36.5 36.5h365.8c20.1 0 36.5-16.4 36.5-36.5s-16.4-36.5-36.5-36.5z m-365.8 52.3c-8.7 0-15.7-7-15.7-15.7s7-15.7 15.7-15.7h365.8c8.7 0 15.7 7 15.7 15.7s-7 15.7-15.7 15.7H344.5zM220.7 461.5c-5.7 0-10.4 4.7-10.4 10.4v22.9c0 5.7 4.7 10.4 10.4 10.4s10.4-4.7 10.4-10.4v-22.9c0-5.7-4.6-10.4-10.4-10.4zM268.7 241.9h565.4M834.1 231.5H268.7c-5.7 0-10.4 4.7-10.4 10.4s4.7 10.4 10.4 10.4H834c5.7 0 10.4-4.7 10.4-10.4s-4.6-10.4-10.3-10.4zM156.1 645.9h-12.3v12.3c0 3.3-2.7 6-6 6s-6-2.7-6-6v-12.3h-12.3c-3.3 0-6-2.7-6-6s2.7-6 6-6h12.3v-12.3c0-3.3 2.7-6 6-6s6 2.7 6 6V634h12.3c3.3 0 6 2.7 6 6s-2.7 5.9-6 5.9zM953.5 433.2h-12.3v12.3c0 3.3-2.7 6-6 6s-6-2.7-6-6v-12.3h-12.3c-3.3 0-6-2.7-6-6s2.7-6 6-6h12.3v-12.3c0-3.3 2.7-6 6-6s6 2.7 6 6v12.3h12.3c3.3 0 6 2.7 6 6s-2.7 6-6 6zM849.6 713.4h-14.3v14.3c0 3.8-3.1 6.9-6.9 6.9s-6.9-3.1-6.9-6.9v-14.3h-14.3c-3.8 0-6.9-3.1-6.9-6.9s3.1-6.9 6.9-6.9h14.3v-14.3c0-3.8 3.1-6.9 6.9-6.9s6.9 3.1 6.9 6.9v14.3h14.3c3.8 0 6.9 3.1 6.9 6.9s-3.1 6.9-6.9 6.9zM278.8 668.2m-10.4 0a10.4 10.4 0 1 1 20.8 0 10.4 10.4 0 1 1-20.8 0ZM921.4 570.3m-13.9 0a13.9 13.9 0 1 1 27.8 0 13.9 13.9 0 1 1-27.8 0ZM712.2 667.7m-13.9 0a13.9 13.9 0 1 1 27.8 0 13.9 13.9 0 1 1-27.8 0ZM92.7 430.7c-15.5 0-28.2 12.6-28.2 28.2 0 15.5 12.6 28.2 28.2 28.2s28.2-12.6 28.2-28.2-12.7-28.2-28.2-28.2z m0 42.5c-7.9 0-14.3-6.4-14.3-14.3s6.4-14.3 14.3-14.3S107 451 107 458.9s-6.4 14.3-14.3 14.3zM542.8 661.4c-15.5 0-28.2 12.6-28.2 28.2 0 15.5 12.6 28.2 28.2 28.2 15.5 0 28.2-12.6 28.2-28.2s-12.6-28.2-28.2-28.2z m0 42.5c-7.9 0-14.3-6.4-14.3-14.3s6.4-14.3 14.3-14.3 14.3 6.4 14.3 14.3c0.1 7.8-6.4 14.3-14.3 14.3zM380.6 785.6c-1.5 1.5-3.9 1.5-5.4 0-0.7-0.7-1.1-1.7-1.1-2.7 0-1 0.4-2 1.1-2.7l12.3-12.3c0.7-0.7 1.7-1.1 2.7-1.1s2 0.4 2.7 1.1c1.5 1.5 1.5 3.9 0 5.4l-12.3 12.3zM413.1 753c-0.7 0.7-1.7 1.1-2.7 1.1-1 0-2-0.4-2.7-1.1-1.5-1.5-1.5-3.9 0-5.4l12.3-12.3c0.7-0.7 1.7-1.1 2.7-1.1 1 0 2 0.4 2.7 1.1 0.7 0.7 1.1 1.7 1.1 2.7 0 1-0.4 2-1.1 2.7L413.1 753zM410.4 766.7c1 0 2 0.4 2.7 1.1l12.3 12.3c0.7 0.7 1.1 1.7 1.1 2.7 0 1-0.4 2-1.1 2.7-1.5 1.5-3.9 1.5-5.4 0l-12.3-12.3c-1.5-1.5-1.5-3.9 0-5.4 0.7-0.7 1.7-1.1 2.7-1.1zM387.5 753l-12.3-12.3c-0.7-0.7-1.1-1.7-1.1-2.7 0-1 0.4-2 1.1-2.7 0.7-0.7 1.7-1.1 2.7-1.1 1 0 2 0.4 2.7 1.1l12.3 12.3c1.5 1.5 1.5 3.9 0 5.4-1.4 1.5-4 1.5-5.4 0zM389.9 760.4c0 2.1-1.7 3.8-3.8 3.8h-17.4c-2.1 0-3.8-1.7-3.8-3.8s1.7-3.8 3.8-3.8H386c2.2 0 3.9 1.7 3.9 3.8zM432 764.3h-17.4c-2.1 0-3.8-1.7-3.8-3.8s1.7-3.8 3.8-3.8H432c2.1 0 3.8 1.7 3.8 3.8s-1.7 3.8-3.8 3.8zM400.3 796c-2.1 0-3.8-1.7-3.8-3.8v-17.4c0-2.1 1.7-3.8 3.8-3.8s3.8 1.7 3.8 3.8v17.4c0.1 2-1.7 3.8-3.8 3.8zM400.3 750c-2.1 0-3.8-1.7-3.8-3.8v-17.4c0-2.1 1.7-3.8 3.8-3.8s3.8 1.7 3.8 3.8v17.4c0.1 2.1-1.7 3.8-3.8 3.8zM876.2-28h-24.8c-5.7 0-10.4 4.7-10.4 10.4s4.7 10.4 10.4 10.4h24.8c5.7 0 10.4-4.7 10.4-10.4s-4.7-10.4-10.4-10.4zM214.4-28h-31.7c-5.7 0-10.4 4.7-10.4 10.4s4.7 10.4 10.4 10.4h31.7c5.7 0 10.4-4.7 10.4-10.4s-4.7-10.4-10.4-10.4zM820.8-28H249.3c-5.7 0-10.4 4.7-10.4 10.4s4.7 10.4 10.4 10.4h571.4c5.7 0 10.4-4.7 10.4-10.4 0.1-5.7-4.6-10.4-10.3-10.4zM289.2 501.9c-5.7 0-10.4 4.7-10.4 10.4v9.6c0 5.7 4.7 10.4 10.4 10.4s10.4-4.7 10.4-10.4v-9.6c0-5.8-4.7-10.4-10.4-10.4zM289.2 406.6c-5.7 0-10.4 4.7-10.4 10.4v59.5c0 5.7 4.7 10.4 10.4 10.4s10.4-4.7 10.4-10.4V417c0-5.8-4.7-10.4-10.4-10.4zM806.3 147.9H248.5c-21 0-38.1 17.1-38.1 38.1V437.3c0 5.7 4.7 10.4 10.4 10.4s10.4-4.7 10.4-10.4v-251.2c0-9.6 7.8-17.3 17.3-17.3h557.9c9.6 0 17.3 7.8 17.3 17.3v380c0 9.6-7.8 17.3-17.3 17.3H248.5c-9.6 0-17.3-7.8-17.3-17.3v-36.6c0-5.7-4.7-10.4-10.4-10.4s-10.4 4.7-10.4 10.4v36.6c0 21 17.1 38.1 38.1 38.1h557.9c21 0 38.1-17.1 38.1-38.1v-380c0-21-17.1-38.2-38.2-38.2z"  horiz-adv-x="1024" />

    
    <glyph glyph-name="jia1" unicode="&#58930;" d="M938.666667 469.333333h-341.333334V810.666667c0 46.933333-38.4 85.333333-85.333333 85.333333s-85.333333-38.4-85.333333-85.333333v-341.333334H85.333333c-46.933333 0-85.333333-38.4-85.333333-85.333333s38.4-85.333333 85.333333-85.333333h341.333334v-341.333334c0-46.933333 38.4-85.333333 85.333333-85.333333s85.333333 38.4 85.333333 85.333333v341.333334h341.333334c46.933333 0 85.333333 38.4 85.333333 85.333333s-38.4 85.333333-85.333333 85.333333z"  horiz-adv-x="1024" />

    
    <glyph glyph-name="fangdajing" unicode="&#58902;" d="M480.492-57.108c-55.138 0-110.277 7.877-165.415 31.508-55.139 23.63-102.4 63.015-141.785 102.4-39.384 47.262-70.892 102.4-94.523 157.538-31.507 63.016-39.384 118.154-39.384 181.17 0 63.015 7.877 126.03 31.507 181.169 23.631 63.015 55.139 110.277 94.523 157.538 39.385 47.262 94.523 78.77 141.785 102.4C362.338 888.123 417.477 896 480.492 896c55.139 0 110.277-7.877 165.416-31.508 55.138-23.63 102.4-63.015 141.784-110.277 39.385-47.261 70.893-102.4 94.523-157.538 23.631-55.139 31.508-118.154 31.508-181.17s-7.877-118.153-31.508-173.292c-23.63-63.015-55.138-110.277-94.523-157.538-39.384-47.262-94.523-78.77-141.784-102.4-55.139-31.508-110.277-39.385-165.416-39.385z m0 882.216c-102.4 0-196.923-39.385-267.815-118.154-141.785-157.539-141.785-417.477 0-575.016 70.892-78.769 165.415-118.153 267.815-118.153s189.046 39.384 259.939 118.153c70.892 78.77 110.277 181.17 110.277 291.447 0 110.277-39.385 212.677-110.277 291.446-70.893 70.892-165.416 110.277-259.939 110.277zM960.985-128c-7.877 0-15.754 0-15.754 7.877L787.692 29.538c-7.877 7.877-7.877 31.508 0 39.385 7.877 7.877 23.631 7.877 39.385 0l149.661-149.661c7.877-7.877 7.877-31.508 0-39.385-7.876-7.877-15.753-7.877-15.753-7.877z"  horiz-adv-x="1024" />

    
    <glyph glyph-name="power-bold-01" unicode="&#59000;" d="M768.08 721.92a446.64 446.64 0 0 0 79.92-72 474.24 474.24 0 0 0 60-87.36 432 432 0 0 0 37.92-99.36 441.6 441.6 0 0 0 12.96-106.56 432 432 0 0 0-35.52-174.48 451.68 451.68 0 0 0-237.84-237.84 432 432 0 0 0-173.52-36 429.6 429.6 0 0 0-173.52 35.52 463.44 463.44 0 0 0-142.32 96 445.68 445.68 0 0 0-96 141.84 448.08 448.08 0 0 0-22.56 278.4 464.16 464.16 0 0 0 35.52 96 428.4 428.4 0 0 0 56.4 86.88 484.32 484.32 0 0 0 76.08 72 61.92 61.92 0 0 0 48 12 62.88 62.88 0 0 0 41.52-24 59.76 59.76 0 0 0 12-48 62.88 62.88 0 0 0-24-42 310.56 310.56 0 0 1-96-113.04 317.76 317.76 0 0 1-33.6-144 312 312 0 0 1 24-124.32 320.16 320.16 0 0 1 68.4-102 328.32 328.32 0 0 1 102-68.88 316.8 316.8 0 0 1 248.88 0 324.48 324.48 0 0 1 170.88 170.88 307.68 307.68 0 0 1 25.44 124.32A316.08 316.08 0 0 1 796.16 504a312 312 0 0 1-101.04 114.48 60.48 60.48 0 0 0-26.4 41.04 63.12 63.12 0 0 0 10.56 48 61.2 61.2 0 0 0 41.04 25.44 62.88 62.88 0 0 0 48-10.56zM512 353.03999999999996a63.12 63.12 0 0 0-62.88 62.88V795.84A62.4 62.4 0 0 0 466.88 840 60 60 0 0 0 512 859.92a60.96 60.96 0 0 0 44.64-19.92 62.16 62.16 0 0 0 18.48-44.88v-378.96a60.48 60.48 0 0 0-18.48-44.4 61.68 61.68 0 0 0-45.36-18.48z m0 0"  horiz-adv-x="1024" />

    
    <glyph glyph-name="zhuce" unicode="&#58906;" d="M819.848101 121.518987h90.734177a22.683544 22.683544 0 0 0 0-45.367088h-90.734177v-90.734177a22.683544 22.683544 0 0 0-45.367088 0v90.734177h-90.734178a22.683544 22.683544 0 0 0 0 45.367088h90.734178v90.734178a22.683544 22.683544 0 0 0 45.367088 0v-90.734178z m-326.487493-57.253265c8.723443 0 16.785823-4.627443 21.154025-12.145418a24.238987 24.238987 0 0 0 0-24.329722c-4.342278-7.517975-12.404658-12.171342-21.128101-12.184304v-0.337012C285.683038 15.269266 116.658228 183.620051 116.658228 390.610633c0 206.990582 168.998886 375.367291 376.70238 375.367291 207.716456 0 376.728304-168.402633 376.728303-375.380253H869.751899a24.368608 24.368608 0 0 0-24.394532-24.303798 24.368608 24.368608 0 0 0-24.394532 24.31676h-0.349974c0 179.783291-146.781975 326.046785-327.239291 326.046785-180.431392 0-327.200405-146.263494-327.226329-326.020861 0-179.783291 146.794937-326.020861 327.226329-326.020861v-0.349974zM562.992608 396.326886c28.918278 20.013367 47.881722 53.196152 47.881721 90.811949 0 61.154835-50.007494 110.734582-111.68081 110.734583-61.686278 0-111.68081-49.579747-111.68081-110.734583 0-37.563949 18.924557-70.707848 47.778025-90.734177C370.195443 371.128709 324.050633 308.444354 324.050633 234.962633V234.936709h31.368101l-0.025924 0.25924c0 72.872506 55.334886 132.782987 126.600101 141.05276 0.751797 0.06481 20.026329 1.749873 35.84-0.272203l1.231393-0.168506 0.181468-0.025924c69.50238-9.851139 122.970734-68.957975 122.970734-140.586127l-0.012962-0.25924H674.025316v0.025924c0 73.403949-46.054076 136.023494-111.032708 161.377215z m-63.773165 7.829063c-46.196658 0-83.656911 37.136203-83.656911 82.956962 0 45.807797 37.460253 82.956962 83.656911 82.956962 46.20962 0 83.669873-37.149165 83.669873-82.956962 0-45.820759-37.460253-82.956962-83.669873-82.956962z"  horiz-adv-x="1024" />

    
    <glyph glyph-name="xiaoshuoshubendushuyuedushuji" unicode="&#58931;" d="M879.104 786.944h-199.168c-73.728 0-137.216-43.008-167.424-104.96-30.208 61.952-93.696 104.96-167.424 104.96H146.432c-44.032 0-79.872-35.84-79.872-79.872v-554.496c0-44.032 35.84-79.872 79.872-79.872h264.192l84.48-84.48c4.608-4.608 11.264-7.168 17.408-7.168s12.8 2.56 17.408 7.168l84.48 84.48h264.704c44.032 0 79.872 35.84 79.872 79.872V707.072c0 44.032-35.84 79.872-79.872 79.872z m39.936-634.368c0-22.016-17.92-39.936-39.936-39.936h-281.088l-85.504-85.504L427.008 112.64H146.432c-22.016 0-39.936 17.92-39.936 39.936V707.072c0 22.016 17.92 39.936 39.936 39.936h197.632c38.4 0 75.264-14.336 102.912-40.96 27.136-26.624 43.008-61.952 44.032-99.328h43.52c1.536 36.864 16.384 71.68 42.496 97.792 27.648 27.648 64 42.496 102.912 42.496h45.056v-172.544l39.936 39.936 39.936-39.936V747.008h73.728c22.016 0 39.936-17.92 39.936-39.936v-554.496zM512.512-29.184c-9.216 0-17.92 3.584-24.576 10.24l-81.408 81.408H146.432c-49.664 0-90.112 40.448-90.112 90.112V707.072c0 49.664 40.448 90.112 90.112 90.112h199.168c68.096 0 132.096-36.352 167.424-93.696 35.328 57.856 99.328 93.696 167.424 93.696h199.168c49.664 0 90.112-40.448 90.112-90.112v-554.496c0-49.664-40.448-90.112-90.112-90.112H619.52l-81.408-81.408c-7.68-6.656-16.384-10.24-25.6-10.24zM146.432 776.704c-38.4 0-69.632-31.232-69.632-69.632v-554.496c0-38.4 31.232-69.632 69.632-69.632H414.72l87.552-87.552c5.632-5.632 14.848-5.632 20.48 0l87.552 87.552h268.8c38.4 0 69.632 31.232 69.632 69.632V707.072c0 38.4-31.232 69.632-69.632 69.632h-199.168c-67.072 0-129.024-38.912-158.208-99.328l-9.216-18.944-9.216 18.944c-29.184 60.416-91.136 99.328-158.208 99.328H146.432z m366.08-763.904L422.912 102.4h-276.48c-27.648 0-50.176 22.528-50.176 50.176V707.072c0 27.648 22.528 50.176 50.176 50.176h197.632c41.984 0 80.896-15.872 110.08-44.032 26.624-26.112 43.008-59.904 46.592-96.768h24.064c3.584 35.84 19.456 69.12 45.056 94.72 29.696 29.696 68.608 45.568 110.592 45.568h55.296V599.04l29.696 29.696 29.696-29.696V757.248h83.968c27.648 0 50.176-22.528 50.176-50.176v-554.496c0-27.648-22.528-50.176-50.176-50.176h-276.992l-89.6-89.6zM146.432 736.768c-16.384 0-29.696-13.312-29.696-29.696v-554.496c0-16.384 13.312-29.696 29.696-29.696h285.184l80.896-80.896 80.896 80.896h285.184c16.384 0 29.696 13.312 29.696 29.696V707.072c0 16.384-13.312 29.696-29.696 29.696h-63.488v-186.88l-50.176 50.176-50.176-50.176V736.768h-34.816c-36.352 0-70.144-14.336-95.744-39.936-24.576-24.576-38.4-56.832-39.424-91.136l-0.512-9.728H481.28l-0.512 9.728c-1.024 35.328-15.872 68.096-40.96 92.672-25.6 24.576-59.392 38.4-95.744 38.4H146.432zM513.536 552.96c-12.288 0-22.016 9.728-22.016 21.504V654.336c0 11.776 9.728 21.504 21.504 21.504h0.512c11.776 0 21.504-9.728 21.504-21.504v-79.36c0-12.288-9.728-22.016-21.504-22.016zM513.024 542.72c-17.92 0-32.256 14.336-32.256 31.744V654.336c0 17.408 14.336 31.744 31.744 31.744 17.92 0 32.256-14.336 32.256-31.744v-79.36c0.512-17.92-13.824-32.256-31.744-32.256z m0 122.88c-6.656 0-11.776-5.12-11.776-11.264v-79.36c0-6.144 5.12-11.264 11.264-11.264h0.512c6.144 0 11.264 5.12 11.264 11.264V654.336c0.512 6.144-4.608 11.264-11.264 11.264z"  horiz-adv-x="1024" />

    
    <glyph glyph-name="dianhuahaoma" unicode="&#58925;" d="M252.5 896h519c44.183 0 80-35.817 80-80v-864c0-44.183-35.817-80-80-80H252.5c-44.183 0-80 35.817-80 80V816C172.5 860.183 208.317 896 252.5 896z m2-122c-11.046 0-20-8.954-20-20v-680c0-11.046 8.954-20 20-20h516c11.046 0 20 8.954 20 20V754c0 11.046-8.954 20-20 20H254.5z m180.5 64c-7.456 0-13.5-6.044-13.5-13.5S427.544 811 435 811h154c7.456 0 13.5 6.044 13.5 13.5S596.456 838 589 838h-154zM512.5-96c32.585 0 59 26.415 59 59s-26.415 59-59 59-59-26.415-59-59 26.415-59 59-59z"  horiz-adv-x="1024" />

    
    <glyph glyph-name="shezhi" unicode="&#58926;" d="M941.892212 278.758473h-54.211401a386.694818 386.694818 0 0 0-37.644061-90.18761l50.122072-50.122073a82.132497 82.132497 0 0 0 0-116.13199l-29.020643-29.057706a82.194269 82.194269 0 0 0-116.13199 0l-50.467998 50.467998a386.954262 386.954262 0 0 0-89.891102-37.063401v-52.580612a82.120142 82.120142 0 0 0-82.107788-82.083079h-41.053894a82.132497 82.132497 0 0 0-82.132496 82.144851v52.51884a387.213706 387.213706 0 0 0-89.866394 37.063401l-50.443288-50.443289a82.206624 82.206624 0 0 0-116.131991 0l-29.008288 29.057706a82.05837 82.05837 0 0 0 0 116.13199l50.109718 50.122073a387.22606 387.22606 0 0 0-37.644061 90.18761H82.157206A82.144851 82.144851 0 0 0 0 360.903324v41.103312a82.132497 82.132497 0 0 0 82.157206 82.120142h53.531905a388.375026 388.375026 0 0 0 36.359197 89.557532l-48.182422 48.182421a82.033661 82.033661 0 0 0 0 116.13199l29.008289 29.057707a82.144851 82.144851 0 0 0 116.13199 0L316.274356 719.775882a387.460795 387.460795 0 0 0 93.053846 38.94128V813.892212A82.132497 82.132497 0 0 0 491.460699 896h41.053894a82.107788 82.107788 0 0 0 82.107787-82.107788v-55.17505a387.522567 387.522567 0 0 0 93.090909-38.94128l47.255837 47.268191a82.144851 82.144851 0 0 0 116.13199 0l29.020643-29.057706a82.132497 82.132497 0 0 0 0-116.13199l-48.182421-48.182422A387.658467 387.658467 0 0 0 888.28618 484.07736h53.556614a82.132497 82.132497 0 0 0 82.181915-82.070724v-41.066249a82.157206 82.157206 0 0 0-82.132497-82.144851z m-429.935453 327.245122c-124.780117 0-225.814948-101.108958-225.814948-225.839657s101.084249-225.852012 225.814948-225.852012a225.852012 225.852012 0 1 1 0 451.691669z m0-325.947903a102.665621 102.665621 0 1 0 102.653267 102.653266 102.653267 102.653267 0 0 0-102.653267-102.653266z m0 0"  horiz-adv-x="1024" />

    
    <glyph glyph-name="guanliyuan" unicode="&#59101;" d="M85.49717333 67.07882667000001l773.39761778 2.77617778-11.37777778 57.97205333s-45.70225778 33.85116445-175.08124444 81.08259555c-15.64672 5.70709333-74.51989333 37.22808889-103.98378667 63.71555556 0 0-48.19626667 51.18179555 47.44078223 164.78663111 0 0 37.36462222 42.99889778 29.60952888 103.40124445 0 0-0.96483555 229.62176-190.29105778 222.31267555 0 0-160.69063111 17.98599111-188.47061333-170.83960889-4.56021333-31.03857778-4.25984-70.89720889-5.65248-110.21880889 52.74737778-73.81902222 52.06471111-74.19221333 73.22737778-111.65696 18.93262222-33.49617778 18.83249778-62.04074667 18.03150222-83.91338667 0 0-20.96241778-28.55367111-81.38296889-59.78339555-64.80782222-33.49617778-97.33006222-37.36462222-184.36551111-78.34282667l-1.10136889-81.29194666zM935.44448 359.20554667l-23.99345778 13.85358222c0.53703111 3.75011555 0.53703111 6.92679111 0.53703111 11.20483556 0 3.73191111 0 6.92679111-0.53703111 11.20483555l23.99345778 13.86268445c6.38976 3.74101333 8.52878222 11.73276445 4.79687111 17.59459555l-26.13248 44.78293333c-3.73191111 6.39886222-11.73276445 8.53788445-17.6128 4.80597334l-23.98435556-13.86268445a75.32088889 75.32088889 0 0 1-18.66865777 11.18663111v27.73447112c0 6.92679111-5.86183111 12.79772445-12.78862223 12.79772444H788.79857778c-6.93589333 0-12.79772445-5.87093333-12.79772445-12.79772444v-28.2624c-6.39886222-3.20398222-12.80682667-6.39886222-18.65955555-11.20483556l-23.98435556 13.85358222a12.87964445 12.87964445 0 0 1-17.60369777-4.79687111l-27.73447112-44.25500445a12.87054222 12.87054222 0 0 1 4.79687112-17.59459555l23.99345777-13.86268445c-0.54613333-3.73191111-0.54613333-6.92679111-0.54613333-11.20483555 0-3.73191111 0-6.92679111 0.54613333-11.20483555l-23.99345777-13.85358223c-6.93589333-3.73191111-9.05671111-11.72366222-4.79687112-17.60369777l26.12337778-44.78293334c3.75011555-6.38976 11.73276445-8.53788445 17.60369778-4.77866666l23.99345778 13.84448c5.88003555-4.78776889 12.26979555-8.00085333 18.65955555-11.20483556v-28.27150222c0-6.91768889 5.88003555-12.77952 12.81592889-12.77952h52.24675556c6.92679111 0 12.79772445 5.87093333 12.79772444 12.77952v28.27150222c6.39886222 3.20398222 12.78862222 6.39886222 18.65955556 11.20483556l23.99345778-13.84448a12.86144 12.86144 0 0 1 17.60369777 4.77866666l26.12337778 44.78293334c5.3248 5.88913778 2.65784889 13.88999111-3.19488 17.62190222z m-121.58748445-20.78947556a45.51111111 45.51111111 0 0 0-45.84789333 45.85699556 45.51111111 45.51111111 0 0 0 45.84789333 45.86609778 45.53841778 45.53841778 0 0 0 45.8752-45.86609778 45.52931555 45.52931555 0 0 0-45.8752-45.85699556z"  horiz-adv-x="1024" />

    
    <glyph glyph-name="kecheng" unicode="&#58898;" d="M223.153304-128c-13.887515 0-25.051988 11.300625-25.051988 25.051988V788.031379c0 13.887515 11.300625 25.051988 25.051988 25.051988 13.887515 0 25.051988-11.300625 25.051988-25.051988v-890.843239c0.136152-13.887515-11.164473-25.18814-25.051988-25.18814zM961.778487-128c-13.887515 0-25.051988 11.300625-25.051988 25.051988V725.946018c0 13.887515 11.300625 25.051988 25.051988 25.051988 13.887515 0 25.051988-11.300625 25.051988-25.051988v-828.89403c0.136152-13.751363-11.164473-25.051988-25.051988-25.051988zM812.691929 698.987901c-13.887515 0-25.051988 11.300625-25.051988 25.051987v146.499668c0 13.887515 11.300625 25.051988 25.051988 25.051988 13.887515 0 25.051988-11.300625 25.051988-25.051988V724.039888c0-13.751363-11.300625-25.051988-25.051988-25.051987zM981.520542-102.81186c0-13.887515-11.300625-25.051988-25.051987-25.051988H223.153304c-13.887515 0-25.051988 11.300625-25.051988 25.051988 0 13.887515 11.300625 25.051988 25.051988 25.051988h733.179099c13.887515 0 25.18814-11.300625 25.188139-25.051988zM323.633559 751.134158c-41.526393 0-75.292115 9.258343-75.292115 50.784736 0 41.526393 33.765723 43.977131 75.292115 43.97713h489.05837v49.967824c-2.178434 0.136152-4.49302 0.136152-6.671453 0.136152H325.811993c-69.846031 0-126.485308-25.324292-126.485308-95.170323 0-69.846031 56.639277-101.977928 126.485308-101.977929h623.032044c2.178434 0 4.49302 0 6.671453 0.136153V751.134158H323.633559zM741.484377 484.003723H367.202234c-13.751363 0-24.915836 11.164473-24.915836 24.915836 0 13.751363 11.164473 24.915836 24.915836 24.915835h374.282143c13.751363 0 24.915836-11.164473 24.915836-24.915835 0-13.751363-11.164473-24.915836-24.915836-24.915836zM574.289589 339.137881H367.202234c-13.751363 0-24.915836 11.164473-24.915836 24.915835 0 13.751363 11.164473 24.915836 24.915836 24.915836h207.087355c13.751363 0 24.915836-11.164473 24.915836-24.915836 0-13.751363-11.164473-24.915836-24.915836-24.915835z"  horiz-adv-x="1325" />

    
    <glyph glyph-name="rizhi" unicode="&#58933;" d="M174.297872 191.546099h-65.361702V-120.737589h225.134752v50.83688H174.297872V191.546099z m704.453901-145.248227v-50.836879h72.624114v-43.574468c-7.262411-7.262411-21.787234-14.524823-36.312057-21.787234-14.524823-7.262411-29.049645-7.262411-43.574468-7.262412-21.787234 0-50.836879 7.262411-65.361702 29.049646-21.787234 21.787234-29.049645 50.836879-21.787234 79.886525 0 29.049645 7.262411 58.099291 21.787234 79.886524 14.524823 14.524823 43.574468 29.049645 65.361702 29.049646 14.524823 0 36.312057-7.262411 43.574468-14.524823 14.524823-7.262411 21.787234-21.787234 21.787234-36.312057l65.361702 14.524823c-7.262411 29.049645-21.787234 50.836879-43.574468 65.361702-29.049645 14.524823-58.099291 29.049645-94.411348 21.787234-29.049645 0-50.836879-7.262411-79.886524-14.524822-29.049645-14.524823-50.836879-36.312057-58.099291-58.099291 0-21.787234-7.262411-50.836879-7.262412-79.886525 0-29.049645 7.262411-58.099291 21.787234-79.886525 14.524823-21.787234 29.049645-43.574468 58.099291-58.099291 29.049645-14.524823 58.099291-21.787234 87.148936-21.787234 29.049645 0 50.836879 7.262411 79.886525 14.524823 21.787234 7.262411 43.574468 21.787234 58.099291 36.312057v123.460993l-145.248227-7.262412zM530.156028 198.808511c-21.787234 0-43.574468-7.262411-72.624113-14.524823-14.524823-7.262411-29.049645-14.524823-43.574468-29.049645-14.524823-14.524823-21.787234-29.049645-29.049646-43.574469-7.262411-21.787234-14.524823-50.836879-14.524822-79.886524 0-43.574468 14.524823-87.148936 43.574468-116.198582 65.361702-58.099291 159.77305-58.099291 225.134752 0 58.099291 65.361702 58.099291 167.035461 0 239.659575-29.049645 29.049645-72.624113 43.574468-108.936171 43.574468z m65.361702-246.921986c-14.524823-14.524823-36.312057-29.049645-65.361702-29.049646-21.787234 0-50.836879 7.262411-65.361702 29.049646-36.312057 50.836879-36.312057 108.93617 0 159.773049 36.312057 36.312057 94.411348 36.312057 130.723404 0 14.524823-21.787234 29.049645-50.836879 21.787235-79.886524 0-21.787234-7.262411-50.836879-21.787235-79.886525z m152.510639 726.241135H152.510638v-72.624114h595.517731V678.12766zM152.510638 387.631206h595.517731V460.255319H152.510638v-72.624113z m-43.574468 435.744681h668.141844c21.787234 0 43.574468-14.524823 43.574468-36.312057V242.382979h72.624114V772.539007c0 65.361702-50.836879 116.198582-116.198582 123.460993H108.93617C50.836879 888.737589 0 837.900709 0 772.539007V-120.737589h72.624113V787.06383c0 21.787234 14.524823 36.312057 36.312057 36.312057z"  horiz-adv-x="1024" />

    
    <glyph glyph-name="timing" unicode="&#58892;" d="M395.52 283.19000000000005h391.51v-78.8H395.52ZM395.52 106.17999999999995h391.51v-78.8H395.52ZM238.91 283.19000000000005h78.3v-78.8h-78.3ZM238.91 106.17999999999995h78.3v-78.8h-78.3ZM512 776.31c-128.78 0-233.18-104.4-233.18-233.18S383.22 309.95000000000004 512 309.95000000000004s233.18 104.4 233.18 233.18S640.78 776.31 512 776.31Zm0.65-421.54c-104.89 0-189.92 85.03-189.92 189.92s85.03 189.92 189.92 189.92 189.92-85.03 189.92-189.92-85.02-189.92-189.92-189.92ZM494.13 707.85h36v-171.32h-36ZM494.107 517.832v40h168.04v-40ZM903.13 853.36H120.87c-21.54 0-39.11-17.57-39.11-39.11v-860.5c0-21.54 17.57-39.11 39.11-39.11h782.27c21.54 0 39.11 17.57 39.11 39.11V814.25c-0.01 21.54-17.58 39.11-39.12 39.11Zm1.13-861.62c0-19.64-16.02-35.66-35.66-35.66H155.4c-19.64 0-35.66 16.02-35.66 35.66V776.26c0 19.64 16.02 35.66 35.66 35.66h713.2c19.64 0 35.66-16.02 35.66-35.66v-784.52Z"  horiz-adv-x="1024" />

    
    <glyph glyph-name="jinxiaocun1" unicode="&#59148;" d="M396.686222 128.512h-40.96c-19.512889 0-35.328-16.497778-35.328-36.807111 0-20.366222 15.815111-36.864 35.271111-36.864h40.96c19.512889 0 35.328 16.497778 35.328 36.864a36.124444 36.124444 0 0 1-35.271111 36.807111z m415.402667 0h-305.493333c-19.456 0-35.271111-16.497778-35.271112-36.807111 0-20.366222 15.815111-36.864 35.271112-36.864h305.493333c19.456 0 35.271111 16.497778 35.271111 36.864a36.067556 36.067556 0 0 1-35.271111 36.807111z m83.171555-171.178667a12.060444 12.060444 0 0 0-11.946666-12.174222H284.444444a12.117333 12.117333 0 0 0-11.946666 12.174222v243.825778c0 6.712889 5.347556 12.174222 11.946666 12.174222h598.812445c6.656 0 11.946667-5.461333 11.946667-12.174222V-42.666667zM431.957333 359.879111a36.124444 36.124444 0 0 0-35.271111-36.807111h-40.96a36.124444 36.124444 0 0 0-35.328 36.807111c0 20.366222 15.815111 36.807111 35.271111 36.807111h40.96c19.512889 0 35.328-16.497778 35.328-36.807111z m-35.271111 182.101333h-40.96a36.124444 36.124444 0 0 0-35.328 36.807112c0 20.366222 15.815111 36.807111 35.271111 36.807111h40.96c19.512889 0 35.328-16.497778 35.328-36.807111a36.124444 36.124444 0 0 0-35.271111-36.807112zM200.590222 700.928v-609.507556H128.739556V822.840889h622.819555V749.795556H248.490667a48.355556 48.355556 0 0 1-47.900445-48.810667z m646.769778-341.048889a36.124444 36.124444 0 0 0-35.271111-36.807111h-305.493333a36.124444 36.124444 0 0 0-35.271112 36.807111c0 20.366222 15.815111 36.807111 35.271112 36.807111h305.493333c19.456 0 35.271111-16.497778 35.271111-36.807111z m-35.271111 255.715556c19.456 0 35.271111-16.497778 35.271111-36.807111a36.067556 36.067556 0 0 0-35.271111-36.807112h-305.493333a36.067556 36.067556 0 0 0-35.271112 36.807112c0 20.366222 15.815111 36.807111 35.271112 36.807111h305.493333z m107.121778 134.144h-95.800889V847.246222A48.355556 48.355556 0 0 1 775.509333 896H104.789333A48.355556 48.355556 0 0 1 56.888889 847.246222v-780.174222a48.355556 48.355556 0 0 1 47.900444-48.810667h95.800889v-97.507555a48.355556 48.355556 0 0 1 47.900445-48.753778h670.72a48.355556 48.355556 0 0 1 47.900444 48.753778V700.928a48.355556 48.355556 0 0 1-47.900444 48.810667z"  horiz-adv-x="1024" />

    
    <glyph glyph-name="rili" unicode="&#58928;" d="M988.330667-112.810667H35.669333A35.612444 35.612444 0 0 0 0-77.198222V780.572444c0 19.740444 15.928889 35.669333 35.669333 35.669334h952.661334c19.740444 0 35.669333-15.928889 35.669333-35.669334v-857.770666c0-19.683556-15.928889-35.612444-35.669333-35.612445zM71.338667-41.528889h881.322666V744.903111H71.338667V-41.528889zM259.982222 680.391111h-2.730666a43.861333 43.861333 0 0 0-43.747556 43.747556V837.12c0 24.064 19.683556 43.747556 43.747556 43.747556h2.730666c24.064 0 43.747556-19.683556 43.747556-43.747556v-112.981333a43.861333 43.861333 0 0 0-43.747556-43.747556zM763.960889 680.391111h2.673778a43.861333 43.861333 0 0 1 43.747555 43.747556V837.12a43.861333 43.861333 0 0 1-43.747555 43.747556h-2.673778a43.861333 43.861333 0 0 1-43.747556-43.747556v-112.981333c0-24.064 19.683556-43.747556 43.747556-43.747556zM35.669333 606.890667h952.661334v-71.338667H35.669333zM439.637333 267.320889H213.560889a35.612444 35.612444 0 1 0 0 71.338667h226.076444a35.612444 35.612444 0 1 0 0-71.338667zM793.770667 267.320889H567.751111a35.612444 35.612444 0 1 0 0 71.338667h226.019556a35.612444 35.612444 0 1 0 0-71.338667zM439.637333 76.913778H213.560889a35.612444 35.612444 0 1 0 0 71.338666h226.076444a35.612444 35.612444 0 1 0 0-71.338666zM793.770667 76.913778H567.751111a35.612444 35.612444 0 1 0 0 71.338666h226.019556a35.612444 35.612444 0 1 0 0-71.338666z"  horiz-adv-x="1024" />

    


  </font>
</defs>
</svg>
